<?xml version="1.0" encoding="UTF-8" standalone="no"?>
<!-- Created with Inkscape (http://www.inkscape.org/) -->

<svg
   xmlns:dc="http://purl.org/dc/elements/1.1/"
   xmlns:cc="http://creativecommons.org/ns#"
   xmlns:rdf="http://www.w3.org/1999/02/22-rdf-syntax-ns#"
   xmlns:svg="http://www.w3.org/2000/svg"
   xmlns="http://www.w3.org/2000/svg"
   xmlns:sodipodi="http://sodipodi.sourceforge.net/DTD/sodipodi-0.dtd"
   xmlns:inkscape="http://www.inkscape.org/namespaces/inkscape"
   width="32px"
   height="32px"
   id="svg3003"
   version="1.1"
   inkscape:version="0.48.4 r9939"
   sodipodi:docname="mountain_top_4.svg"
   inkscape:export-filename="C:\Users\Administrador\Desktop\mountain_top_2.png"
   inkscape:export-xdpi="90"
   inkscape:export-ydpi="90">
  <defs
     id="defs3005" />
  <sodipodi:namedview
     id="base"
     pagecolor="#ffffff"
     bordercolor="#666666"
     borderopacity="1.0"
     inkscape:pageopacity="0.0"
     inkscape:pageshadow="2"
     inkscape:zoom="9.8442522"
     inkscape:cx="16.865137"
     inkscape:cy="6.9394143"
     inkscape:current-layer="layer1"
     showgrid="true"
     inkscape:grid-bbox="true"
     inkscape:document-units="px"
     inkscape:window-width="974"
     inkscape:window-height="834"
     inkscape:window-x="947"
     inkscape:window-y="121"
     inkscape:window-maximized="0"
     inkscape:snap-grids="false"
     inkscape:snap-page="false"
     inkscape:snap-to-guides="false"
     showguides="true"
     inkscape:guide-bbox="true" />
  <metadata
     id="metadata3008">
    <rdf:RDF>
      <cc:Work
         rdf:about="">
        <dc:format>image/svg+xml</dc:format>
        <dc:type
           rdf:resource="http://purl.org/dc/dcmitype/StillImage" />
        <dc:title></dc:title>
      </cc:Work>
    </rdf:RDF>
  </metadata>
  <g
     id="layer1"
     inkscape:label="Layer 1"
     inkscape:groupmode="layer">
    <rect
       style="fill:#865a2c;fill-opacity:0.94179891"
       id="rect3789"
       width="32.011185"
       height="32.037804"
       x="-0.15726869"
       y="0.14167023" />
    <rect
       style="fill:#3b8300;fill-opacity:0.82539684"
       id="rect3789-1"
       width="32.112766"
       height="7.0240669"
       x="-0.033131074"
       y="0.017209578" />
    <path
       style="fill:#64b900;fill-opacity:1"
       d="M 0.09517381,0.4513019 C 10.147405,1.728692 20.429357,0.63530762 32.20794,0.4513019 26.217409,1.3451079 31.523334,9.0167868 14.024741,3.0057556 -9.8645786,7.9047478 -0.7008811,1.5288306 1.110995,2.8025914 z"
       id="rect3789-1-7"
       inkscape:connector-curvature="0"
       sodipodi:nodetypes="ccccc" />
    <path
       style="fill:#504416;fill-opacity:0.82352941"
       d="M 10.107422,19.099071 5.8409716,18.489579 c -1.22564,-0.175092 -2.234807,3.047463 -2.234807,3.047463 l 0,0 c 0,0 3.261443,-0.130688 4.063285,0.812656 l 1.726897,2.031643 c 0.8018424,0.943344 2.8442994,-1.606216 2.8442994,-2.844299 l 0,-0.812657 c 0,-1.238083 -0.907585,-1.450222 -2.133224,-1.625314 z"
       id="rect3842"
       inkscape:connector-curvature="0"
       sodipodi:nodetypes="sssssssss" />
    <path
       style="fill:#b37b00;fill-opacity:1"
       d="M 10.259795,18.492127 5.9933456,17.882635 c -1.22564,-0.175092 -2.234807,3.047463 -2.234807,3.047463 l 0,0 c 0,0 3.261443,-0.130688 4.063285,0.812656 l 1.726897,2.031643 C 10.350563,24.717741 12.39302,22.168181 12.39302,20.930098 l 0,-0.812657 c 0,-1.238083 -0.907585,-1.450222 -2.133225,-1.625314 z"
       id="rect3842-8"
       inkscape:connector-curvature="0"
       sodipodi:nodetypes="sssssssss" />
    <path
       style="fill:#ce9716;fill-opacity:1"
       d="M 10.158213,19.203201 5.8917626,18.593709 c -1.22564,-0.175092 -0.711074,1.117403 -0.711074,1.117403 l 1.93006,0.203164 c 0,0 0.806003,0.129653 2.031642,0.304745 l 2.1332254,0.304748 c 1.225639,0.175092 -1.238083,-0.101582 0,-0.101582 l 0.406328,0 c 1.238084,0 -0.298092,-1.043894 -1.523731,-1.218986 z"
       id="rect3842-8-2"
       inkscape:connector-curvature="0"
       sodipodi:nodetypes="sssssssss" />
    <path
       style="fill:#504416;fill-opacity:0.82352941"
       d="M 7.9488004,26.211093 12.21525,25.601601 c 1.22564,-0.175092 2.234807,3.047463 2.234807,3.047463 l 0,0 c 0,0 -3.261442,-0.130688 -4.063285,0.812656 L 8.6598749,31.493363 C 7.8580324,32.436707 5.8155764,29.887147 5.8155764,28.649064 l 0,-0.812657 c 0,-1.238083 0.907584,-1.450222 2.133224,-1.625314 z"
       id="rect3842-6"
       inkscape:connector-curvature="0"
       sodipodi:nodetypes="sssssssss" />
    <path
       style="fill:#b37b00;fill-opacity:1"
       d="m 7.7964264,25.604149 4.2664506,-0.609492 c 1.22564,-0.175092 2.234806,3.047463 2.234806,3.047463 l 0,0 c 0,0 -3.261442,-0.130688 -4.063284,0.812656 L 8.5075009,30.886419 C 7.7056594,31.829763 5.6632024,29.280203 5.6632024,28.04212 l 0,-0.812657 c 0,-1.238083 0.907585,-1.450222 2.133224,-1.625314 z"
       id="rect3842-8-23"
       inkscape:connector-curvature="0"
       sodipodi:nodetypes="sssssssss" />
    <path
       style="fill:#ce9716;fill-opacity:1"
       d="m 7.8980084,26.315223 4.2664506,-0.609492 c 1.22564,-0.175092 0.711074,1.117403 0.711074,1.117403 l -1.93006,0.203164 c 0,0 -0.806003,0.129653 -2.0316431,0.304745 l -2.1332245,0.304748 c -1.225639,0.175092 1.238084,-0.101582 1e-6,-0.101582 l -0.406329,0 c -1.238083,0 0.298092,-1.043894 1.523731,-1.218986 z"
       id="rect3842-8-2-8"
       inkscape:connector-curvature="0"
       sodipodi:nodetypes="sssssssss" />
    <path
       style="fill:#3f3000;fill-opacity:0.82352941"
       d="m 4.2398176,26.138875 c 0,-3.010792 -1.2252783,-6.197521 -1.4221503,-5.434643 l -0.812657,3.149046 c -0.196871,0.762877 -1.52373198,0.290626 -1.52373198,3.301419 0,3.010793 -0.27996,4.418823 0.507911,4.418823 l 1.82847798,0 c 0.787871,0 1.4221503,-2.423851 1.4221503,-5.434645 z"
       id="rect5048"
       inkscape:connector-curvature="0"
       sodipodi:nodetypes="sssssss" />
    <path
       style="fill:#b27700;fill-opacity:0.82352941"
       d="m 4.4494616,25.556016 c 0,-3.010794 -1.2252778,-6.197523 -1.4221498,-5.434645 l -0.812657,3.149047 c -0.196871,0.762877 -1.52373198,0.290626 -1.52373198,3.301419 0,3.010792 -0.27996,4.418822 0.50791098,4.418822 l 1.828478,0 c 0.7878708,0 1.4221498,-2.423851 1.4221498,-5.434643 z"
       id="rect5048-2"
       inkscape:connector-curvature="0"
       sodipodi:nodetypes="sssssss" />
    <path
       style="fill:#cea000;fill-opacity:0.82352941"
       d="m 4.0460636,25.412297 c 0,-2.453898 -0.720541,-5.072113 -0.86698,-4.465332 l -0.227162,0.941265 c -0.146439,0.60678 0.132768,1.532041 0.132768,3.985938 0,2.453896 -0.647229,4.240406 -0.442119,4.160189 l 0.714281,-0.279351 c 0.205108,-0.08022 0.689212,-1.888813 0.689212,-4.342709 z"
       id="rect5048-2-1"
       inkscape:connector-curvature="0"
       sodipodi:nodetypes="sssssss" />
    <path
       style="fill:#504416;fill-opacity:0.82352941"
       d="m 25.013979,8.9414959 -4.26645,-0.609492 c -1.22564,-0.175092 -2.234807,3.0474631 -2.234807,3.0474631 l 0,0 c 0,0 3.261443,-0.130688 4.063285,0.812656 l 1.726897,2.031643 c 0.801842,0.943344 2.844299,-1.606216 2.844299,-2.844299 l 0,-0.812657 c 0,-1.2380831 -0.907585,-1.4502221 -2.133224,-1.6253141 z"
       id="rect3842-4"
       inkscape:connector-curvature="0"
       sodipodi:nodetypes="sssssssss" />
    <path
       style="fill:#b37b00;fill-opacity:1"
       d="m 25.166352,8.3345519 -4.266449,-0.609492 c -1.22564,-0.175092 -2.234807,3.0474631 -2.234807,3.0474631 l 0,0 c 0,0 3.261443,-0.130688 4.063285,0.812656 l 1.726897,2.031643 c 0.801842,0.943344 2.844299,-1.606216 2.844299,-2.844299 l 0,-0.8126571 c 0,-1.238083 -0.907585,-1.450222 -2.133225,-1.625314 z"
       id="rect3842-8-6"
       inkscape:connector-curvature="0"
       sodipodi:nodetypes="sssssssss" />
    <path
       style="fill:#ce9716;fill-opacity:1"
       d="m 25.06477,9.0456259 -4.26645,-0.609492 c -1.22564,-0.175092 -0.711074,1.117403 -0.711074,1.117403 l 1.93006,0.203164 c 0,0 0.806003,0.129653 2.031642,0.3047451 l 2.133225,0.304748 c 1.225639,0.175092 -1.238083,-0.101582 0,-0.101582 l 0.406328,0 c 1.238084,0 -0.298092,-1.0438941 -1.523731,-1.2189861 z"
       id="rect3842-8-2-9"
       inkscape:connector-curvature="0"
       sodipodi:nodetypes="sssssssss" />
    <path
       style="fill:#504416;fill-opacity:0.82352941"
       d="m 22.855358,16.053518 4.266449,-0.609492 c 1.22564,-0.175092 2.234807,3.047463 2.234807,3.047463 l 0,0 c 0,0 -3.261442,-0.130688 -4.063285,0.812656 l -1.726897,2.031643 c -0.801842,0.943344 -2.844298,-1.606216 -2.844298,-2.844299 l 0,-0.812657 c 0,-1.238083 0.907584,-1.450222 2.133224,-1.625314 z"
       id="rect3842-6-8"
       inkscape:connector-curvature="0"
       sodipodi:nodetypes="sssssssss" />
    <path
       style="fill:#b37b00;fill-opacity:1"
       d="m 22.702984,15.446574 4.26645,-0.609492 c 1.22564,-0.175092 2.234806,3.047463 2.234806,3.047463 l 0,0 c 0,0 -3.261442,-0.130688 -4.063284,0.812656 l -1.726898,2.031643 C 22.612217,21.672188 20.56976,19.122628 20.56976,17.884545 l 0,-0.812657 c 0,-1.238083 0.907585,-1.450222 2.133224,-1.625314 z"
       id="rect3842-8-23-5"
       inkscape:connector-curvature="0"
       sodipodi:nodetypes="sssssssss" />
    <path
       style="fill:#ce9716;fill-opacity:1"
       d="m 22.804566,16.157648 4.26645,-0.609492 c 1.22564,-0.175092 0.711074,1.117403 0.711074,1.117403 l -1.93006,0.203164 c 0,0 -0.806003,0.129653 -2.031643,0.304745 l -2.133224,0.304748 c -1.225639,0.175092 1.238084,-0.101582 10e-7,-0.101582 l -0.406329,0 c -1.238083,0 0.298092,-1.043894 1.523731,-1.218986 z"
       id="rect3842-8-2-8-6"
       inkscape:connector-curvature="0"
       sodipodi:nodetypes="sssssssss" />
    <path
       style="fill:#3f3000;fill-opacity:0.82352941"
       d="m 19.146375,15.9813 c 0,-3.010792 -1.225278,-6.1975211 -1.42215,-5.434643 l -0.812657,3.149046 c -0.196871,0.762877 -1.523732,0.290626 -1.523732,3.301419 0,3.010793 -0.27996,4.418823 0.507911,4.418823 l 1.828478,0 c 0.787871,0 1.42215,-2.423851 1.42215,-5.434645 z"
       id="rect5048-6"
       inkscape:connector-curvature="0"
       sodipodi:nodetypes="sssssss" />
    <path
       style="fill:#b27700;fill-opacity:0.82352941"
       d="m 19.356019,15.398441 c 0,-3.010794 -1.225278,-6.1975231 -1.42215,-5.4346451 l -0.812657,3.1490471 c -0.196871,0.762877 -1.523732,0.290626 -1.523732,3.301419 0,3.010792 -0.27996,4.418822 0.507911,4.418822 l 1.828478,0 c 0.787871,0 1.42215,-2.423851 1.42215,-5.434643 z"
       id="rect5048-2-0"
       inkscape:connector-curvature="0"
       sodipodi:nodetypes="sssssss" />
    <path
       style="fill:#cea000;fill-opacity:0.82352941"
       d="m 18.952621,15.254722 c 0,-2.453898 -0.720541,-5.072113 -0.86698,-4.465332 l -0.227162,0.941265 c -0.146439,0.60678 0.132768,1.532041 0.132768,3.985938 0,2.453896 -0.647229,4.240406 -0.442119,4.160189 l 0.714281,-0.279351 c 0.205108,-0.08022 0.689212,-1.888813 0.689212,-4.342709 z"
       id="rect5048-2-1-7"
       inkscape:connector-curvature="0"
       sodipodi:nodetypes="sssssss" />
  </g>
</svg>
