<?xml version="1.0" encoding="UTF-8" standalone="no"?>
<!-- Created with Inkscape (http://www.inkscape.org/) -->

<svg
   xmlns:dc="http://purl.org/dc/elements/1.1/"
   xmlns:cc="http://creativecommons.org/ns#"
   xmlns:rdf="http://www.w3.org/1999/02/22-rdf-syntax-ns#"
   xmlns:svg="http://www.w3.org/2000/svg"
   xmlns="http://www.w3.org/2000/svg"
   xmlns:sodipodi="http://sodipodi.sourceforge.net/DTD/sodipodi-0.dtd"
   xmlns:inkscape="http://www.inkscape.org/namespaces/inkscape"
   width="32px"
   height="32px"
   id="svg3003"
   version="1.1"
   inkscape:version="0.48.4 r9939"
   sodipodi:docname="mountain_inside_3.svg"
   inkscape:export-filename="C:\Users\Administrador\Desktop\mountain_top_2.png"
   inkscape:export-xdpi="90"
   inkscape:export-ydpi="90">
  <defs
     id="defs3005" />
  <sodipodi:namedview
     id="base"
     pagecolor="#ffffff"
     bordercolor="#666666"
     borderopacity="1.0"
     inkscape:pageopacity="0.0"
     inkscape:pageshadow="2"
     inkscape:zoom="9.8442522"
     inkscape:cx="16.865137"
     inkscape:cy="6.9394143"
     inkscape:current-layer="layer1"
     showgrid="true"
     inkscape:grid-bbox="true"
     inkscape:document-units="px"
     inkscape:window-width="974"
     inkscape:window-height="834"
     inkscape:window-x="815"
     inkscape:window-y="113"
     inkscape:window-maximized="0"
     inkscape:snap-grids="false"
     inkscape:snap-page="false"
     inkscape:snap-to-guides="false"
     showguides="true"
     inkscape:guide-bbox="true" />
  <metadata
     id="metadata3008">
    <rdf:RDF>
      <cc:Work
         rdf:about="">
        <dc:format>image/svg+xml</dc:format>
        <dc:type
           rdf:resource="http://purl.org/dc/dcmitype/StillImage" />
        <dc:title></dc:title>
      </cc:Work>
    </rdf:RDF>
  </metadata>
  <g
     id="layer1"
     inkscape:label="Layer 1"
     inkscape:groupmode="layer">
    <rect
       style="fill:#865a2c;fill-opacity:0.94179891"
       id="rect3789"
       width="32.011185"
       height="32.037804"
       x="-32.057079"
       y="-0.061494011"
       transform="scale(-1,1)" />
    <path
       style="fill:#504416;fill-opacity:0.82352941"
       d="m 24.178334,19.403817 -4.266451,-0.609492 c -1.22564,-0.175092 -2.234807,3.047463 -2.234807,3.047463 l 0,0 c 0,0 3.261443,-0.130688 4.063285,0.812656 l 1.726897,2.031643 c 0.801843,0.943344 2.8443,-1.606216 2.8443,-2.844299 l 0,-0.812657 c 0,-1.238083 -0.907585,-1.450222 -2.133224,-1.625314 z"
       id="rect3842"
       inkscape:connector-curvature="0"
       sodipodi:nodetypes="sssssssss" />
    <path
       style="fill:#9d5d00;fill-opacity:0.96078426"
       d="m 24.330707,18.796873 -4.26645,-0.609492 c -1.22564,-0.175092 -2.234807,3.047463 -2.234807,3.047463 l 0,0 c 0,0 3.261443,-0.130688 4.063285,0.812656 l 1.726897,2.031643 c 0.801843,0.943344 2.8443,-1.606216 2.8443,-2.844299 l 0,-0.812657 c 0,-1.238083 -0.907585,-1.450222 -2.133225,-1.625314 z"
       id="rect3842-8"
       inkscape:connector-curvature="0"
       sodipodi:nodetypes="sssssssss" />
    <path
       style="fill:#ce9716;fill-opacity:1"
       d="M 24.229125,19.507947 19.962674,18.898455 C 18.737034,18.723363 19.2516,20.015858 19.2516,20.015858 l 1.93006,0.203164 c 0,0 0.806003,0.129653 2.031642,0.304745 l 2.133226,0.304748 c 1.225639,0.175092 -1.238083,-0.101582 0,-0.101582 l 0.406328,0 c 1.238084,0 -0.298092,-1.043894 -1.523731,-1.218986 z"
       id="rect3842-8-2"
       inkscape:connector-curvature="0"
       sodipodi:nodetypes="sssssssss" />
    <path
       style="fill:#504416;fill-opacity:0.82352941"
       d="m 22.019712,26.515839 4.26645,-0.609492 c 1.22564,-0.175092 2.234807,3.047463 2.234807,3.047463 l 0,0 c 0,0 -3.261442,-0.130688 -4.063285,0.812656 l -1.726897,2.031643 c -0.801843,0.943344 -2.844299,-1.606216 -2.844299,-2.844299 l 0,-0.812657 c 0,-1.238083 0.907584,-1.450222 2.133224,-1.625314 z"
       id="rect3842-6"
       inkscape:connector-curvature="0"
       sodipodi:nodetypes="sssssssss" />
    <path
       style="fill:#9d5d00;fill-opacity:0.96078426"
       d="m 21.867338,25.908895 4.266451,-0.609492 c 1.22564,-0.175092 2.234806,3.047463 2.234806,3.047463 l 0,0 c 0,0 -3.261442,-0.130688 -4.063284,0.812656 l -1.726898,2.031643 c -0.801842,0.943344 -2.844299,-1.606216 -2.844299,-2.844299 l 0,-0.812657 c 0,-1.238083 0.907585,-1.450222 2.133224,-1.625314 z"
       id="rect3842-8-23"
       inkscape:connector-curvature="0"
       sodipodi:nodetypes="sssssssss" />
    <path
       style="fill:#ce9716;fill-opacity:1"
       d="m 21.96892,26.619969 4.266451,-0.609492 c 1.22564,-0.175092 0.711074,1.117403 0.711074,1.117403 l -1.93006,0.203164 c 0,0 -0.806003,0.129653 -2.031643,0.304745 l -2.133225,0.304748 c -1.225639,0.175092 1.238084,-0.101582 10e-7,-0.101582 l -0.406329,0 c -1.238083,0 0.298092,-1.043894 1.523731,-1.218986 z"
       id="rect3842-8-2-8"
       inkscape:connector-curvature="0"
       sodipodi:nodetypes="sssssssss" />
    <path
       style="fill:#504416;fill-opacity:0.82352941"
       d="M 2.8787216,9.8171748 6.8724628,8.1972668 C 8.0197607,7.7319085 9.7759382,10.616197 9.7759382,10.616197 l 0,0 c 0,0 -3.1967798,0.659305 -3.7475954,1.76811 L 4.8420713,14.7723 C 4.2912556,15.881106 1.6944733,13.899034 1.3960452,12.697456 L 1.200162,11.90876 C 0.90173391,10.707182 1.7314247,10.282533 2.8787216,9.8171748 z"
       id="rect3842-4"
       inkscape:connector-curvature="0"
       sodipodi:nodetypes="sssssssss" />
    <path
       style="fill:#684221;fill-opacity:0.96078425"
       d="M 2.5845432,9.2648546 6.5782835,7.6449467 C 7.7255814,7.1795885 9.4817592,10.063877 9.4817592,10.063877 l 0,0 c 0,0 -3.1967801,0.659305 -3.7475958,1.76811 L 4.547892,14.21998 C 3.9970763,15.328786 1.4002939,13.346714 1.1018659,12.145136 L 0.90598261,11.35644 C 0.60755461,10.154862 1.4372454,9.7302128 2.5845432,9.2648546 z"
       id="rect3842-8-6"
       inkscape:connector-curvature="0"
       sodipodi:nodetypes="sssssssss" />
    <path
       style="fill:#ce9716;fill-opacity:1"
       d="m 2.8545277,9.9304772 3.9937412,-1.619908 c 1.147298,-0.4653583 0.9594474,0.9130589 0.9594474,0.9130589 l -1.824181,0.6623961 c 0,0 -0.7509865,0.3201098 -1.8982833,0.7854678 l -1.9968704,0.809956 c -1.14729689,0.465358 1.1770928,-0.397015 -0.024485,-0.09859 l -0.3943474,0.09794 c -1.20157919,0.298429 0.037682,-1.084967 1.1849789,-1.5503248 z"
       id="rect3842-8-2-9"
       inkscape:connector-curvature="0"
       sodipodi:nodetypes="sssssssss" />
    <path
       style="fill:#504416;fill-opacity:0.82352941"
       d="m 21.107329,2.6434045 4.26645,-0.609492 c 1.22564,-0.175092 2.234807,3.047463 2.234807,3.047463 l 0,0 c 0,0 -3.261443,-0.130688 -4.063285,0.812656 l -1.726897,2.031643 c -0.801842,0.943344 -2.844299,-1.606216 -2.844299,-2.844299 l 0,-0.812657 c 0,-1.238083 0.907585,-1.450222 2.133224,-1.625314 z"
       id="rect3842-4-2"
       inkscape:connector-curvature="0"
       sodipodi:nodetypes="sssssssss" />
    <path
       style="fill:#b37521;fill-opacity:0.96078426"
       d="m 20.954956,2.0364605 4.266449,-0.609492 c 1.22564,-0.175092 2.234807,3.047463 2.234807,3.047463 l 0,0 c 0,0 -3.261443,-0.130688 -4.063285,0.812656 l -1.726897,2.031643 c -0.801842,0.943344 -2.844299,-1.606216 -2.844299,-2.844299 l 0,-0.812657 c 0,-1.238083 0.907585,-1.450222 2.133225,-1.625314 z"
       id="rect3842-8-6-7"
       inkscape:connector-curvature="0"
       sodipodi:nodetypes="sssssssss" />
    <path
       style="fill:#ce9716;fill-opacity:1"
       d="m 21.056538,2.7475345 4.26645,-0.609492 c 1.22564,-0.175092 0.711074,1.117403 0.711074,1.117403 l -1.93006,0.203164 c 0,0 -0.806003,0.129653 -2.031642,0.304745 l -2.133225,0.304748 c -1.225639,0.175092 1.238083,-0.101582 0,-0.101582 l -0.406328,0 c -1.238084,0 0.298092,-1.043894 1.523731,-1.218986 z"
       id="rect3842-8-2-9-2"
       inkscape:connector-curvature="0"
       sodipodi:nodetypes="sssssssss" />
    <path
       style="fill:#504416;fill-opacity:0.82352941"
       d="M 14.834634,15.444025 10.568185,14.834533 C 9.3425451,14.659441 8.3333781,17.881996 8.3333781,17.881996 l 0,0 c 0,0 3.2614419,-0.130688 4.0632849,0.812656 l 1.726897,2.031643 c 0.801842,0.943344 2.844298,-1.606216 2.844298,-2.844299 l 0,-0.812657 c 0,-1.238083 -0.907584,-1.450222 -2.133224,-1.625314 z"
       id="rect3842-6-8-6"
       inkscape:connector-curvature="0"
       sodipodi:nodetypes="sssssssss" />
    <path
       style="fill:#9d5d00;fill-opacity:0.96078425"
       d="m 14.987008,14.837081 -4.26645,-0.609492 C 9.4949181,14.052497 8.4857521,17.275052 8.4857521,17.275052 l 0,0 c 0,0 3.2614419,-0.130688 4.0632839,0.812656 l 1.726898,2.031643 c 0.801841,0.943344 2.844298,-1.606216 2.844298,-2.844299 l 0,-0.812657 c 0,-1.238083 -0.907585,-1.450222 -2.133224,-1.625314 z"
       id="rect3842-8-23-5-4"
       inkscape:connector-curvature="0"
       sodipodi:nodetypes="sssssssss" />
    <path
       style="fill:#ce9716;fill-opacity:1"
       d="m 14.885426,15.548155 -4.26645,-0.609492 C 9.3933361,14.763571 9.9079021,16.056066 9.9079021,16.056066 l 1.9300599,0.203164 c 0,0 0.806003,0.129653 2.031643,0.304745 l 2.133224,0.304748 c 1.225639,0.175092 -1.238084,-0.101582 -10e-7,-0.101582 l 0.406329,0 c 1.238083,0 -0.298092,-1.043894 -1.523731,-1.218986 z"
       id="rect3842-8-2-8-6-7"
       inkscape:connector-curvature="0"
       sodipodi:nodetypes="sssssssss" />
    <path
       style="fill:#3f3000;fill-opacity:0.82352941"
       d="m 26.974933,9.6832085 c 0,-3.010792 1.225278,-6.197521 1.42215,-5.434643 l 0.812657,3.149046 c 0.196871,0.762877 1.523732,0.290626 1.523732,3.3014185 0,3.010793 0.27996,4.418823 -0.507911,4.418823 l -1.828478,0 c -0.787871,0 -1.42215,-2.423851 -1.42215,-5.4346445 z"
       id="rect5048-6-1"
       inkscape:connector-curvature="0"
       sodipodi:nodetypes="sssssss" />
    <path
       style="fill:#b38421;fill-opacity:0.96078426"
       d="m 26.765289,9.1003495 c 0,-3.010794 1.225278,-6.197523 1.42215,-5.434645 l 0.812657,3.149047 c 0.196871,0.762877 1.523732,0.290626 1.523732,3.3014185 0,3.010792 0.27996,4.418822 -0.507911,4.418822 l -1.828478,0 c -0.787871,0 -1.42215,-2.423851 -1.42215,-5.4346425 z"
       id="rect5048-2-0-3"
       inkscape:connector-curvature="0"
       sodipodi:nodetypes="sssssss" />
    <path
       style="fill:#cea000;fill-opacity:0.82352941"
       d="m 27.168687,8.9566305 c 0,-2.453898 0.720541,-5.072113 0.86698,-4.465332 l 0.227162,0.941265 c 0.146439,0.60678 -0.132768,1.532041 -0.132768,3.985938 0,2.4538955 0.647229,4.2404055 0.442119,4.1601885 l -0.714281,-0.279351 c -0.205108,-0.08022 -0.689212,-1.888813 -0.689212,-4.3427085 z"
       id="rect5048-2-1-7-2"
       inkscape:connector-curvature="0"
       sodipodi:nodetypes="sssssss" />
    <path
       style="fill:#504416;fill-opacity:0.82352941"
       d="m 4.0385075,1.9323297 4.266448,-0.609492 c 1.22564,-0.175092 2.2348075,3.047463 2.2348075,3.047463 l 0,0 c 0,0 -3.2614415,-0.130688 -4.0632835,0.812656 l -1.726897,2.031643 c -0.801842,0.943344 -2.844299,-1.606216 -2.844299,-2.844299 l 0,-0.812657 c 0,-1.238083 0.907585,-1.450222 2.133224,-1.625314 z"
       id="rect3842-4-1"
       inkscape:connector-curvature="0"
       sodipodi:nodetypes="sssssssss" />
    <path
       style="fill:#b37521;fill-opacity:0.96078425"
       d="m 3.8861345,1.3253857 4.266448,-0.60949203 c 1.225639,-0.175092 2.2348065,3.04746303 2.2348065,3.04746303 l 0,0 c 0,0 -3.2614415,-0.130688 -4.0632835,0.812656 l -1.726897,2.031643 C 3.7953665,7.5509997 1.7529093,5.0014397 1.7529093,3.7633567 l 0,-0.812657 c 0,-1.238083 0.9075852,-1.450222 2.1332252,-1.625314 z"
       id="rect3842-8-6-6"
       inkscape:connector-curvature="0"
       sodipodi:nodetypes="sssssssss" />
    <path
       style="fill:#ce9716;fill-opacity:1"
       d="m 3.9877165,2.0364597 4.266449,-0.609492 c 1.225639,-0.175092 0.711073,1.117403 0.711073,1.117403 l -1.930058,0.203164 c 0,0 -0.806003,0.129653 -2.031642,0.304745 l -2.133225,0.304748 c -1.2256392,0.175092 1.238083,-0.101582 0,-0.101582 l -0.406328,0 c -1.2380842,0 0.298092,-1.043894 1.523731,-1.218986 z"
       id="rect3842-8-2-9-3"
       inkscape:connector-curvature="0"
       sodipodi:nodetypes="sssssssss" />
    <path
       style="fill:#504416;fill-opacity:0.82352941"
       d="m 2.3370078,16.663011 -4.266449,-0.609492 c -1.2256401,-0.175092 -2.2348071,3.047464 -2.2348071,3.047464 l 0,0 c 0,0 3.26144205,-0.130688 4.06328505,0.812656 l 1.72689705,2.031643 c 0.801842,0.943344 2.8442967,-1.606216 2.8442967,-2.844299 l 0,-0.812658 c 0,-1.238083 -0.9075837,-1.450222 -2.1332227,-1.625314 z"
       id="rect3842-6-8-8"
       inkscape:connector-curvature="0"
       sodipodi:nodetypes="sssssssss" />
    <path
       style="fill:#684221;fill-opacity:0.96078426"
       d="m 2.4893818,16.056067 -4.26645,-0.609492 c -1.2256401,-0.175092 -2.2348061,3.047464 -2.2348061,3.047464 l 0,0 c 0,0 3.26144205,-0.130688 4.06328405,0.812656 l 1.72689805,2.031643 c 0.801841,0.943344 2.8442967,-1.606216 2.8442967,-2.844299 l 0,-0.812658 c 0,-1.238083 -0.9075847,-1.450222 -2.1332227,-1.625314 z"
       id="rect3842-8-23-5-3"
       inkscape:connector-curvature="0"
       sodipodi:nodetypes="sssssssss" />
    <path
       style="fill:#ce9716;fill-opacity:1"
       d="m 2.3877998,16.767141 -4.26645,-0.609492 c -1.2256401,-0.175092 -0.711074,1.117403 -0.711074,1.117403 l 1.93005995,0.203164 c 0,0 0.806003,0.129653 2.03164305,0.304745 l 2.133223,0.304748 c 1.2256387,0.175092 -1.238083,-0.101582 -1e-6,-0.101582 l 0.406329,0 c 1.2380827,0 -0.298092,-1.043894 -1.52373,-1.218986 z"
       id="rect3842-8-2-8-6-2"
       inkscape:connector-curvature="0"
       sodipodi:nodetypes="sssssssss" />
    <path
       style="fill:#3f3000;fill-opacity:0.82352941"
       d="m 16.018945,6.039977 c -1.786211,-2.4237 -4.663154,-4.26211 -4.369044,-3.531192 l 1.21404,3.017119 c 0.294105,0.730918 -1.054191,1.137938 0.73202,3.561639 1.786212,2.423701 2.396184,3.723263 3.030424,3.255843 l 1.471932,-1.08478 c 0.63424,-0.467419 -0.29316,-2.794927 -2.079372,-5.218629 z"
       id="rect5048-6-8"
       inkscape:connector-curvature="0"
       sodipodi:nodetypes="sssssss" />
    <path
       style="fill:#b38421;fill-opacity:0.96078425"
       d="M 15.841916,5.446397 C 14.055705,3.022696 11.178762,1.184287 11.472872,1.915204 l 1.21404,3.01712 c 0.294106,0.730919 -1.054191,1.137939 0.732021,3.56164 1.786211,2.4237 2.396183,3.723262 3.030422,3.255842 l 1.471933,-1.08478 c 0.634239,-0.467421 -0.29316,-2.794928 -2.079372,-5.218629 z"
       id="rect5048-2-0-6"
       inkscape:connector-curvature="0"
       sodipodi:nodetypes="sssssss" />
    <path
       style="fill:#cea000;fill-opacity:0.82352941"
       d="M 15.431915,5.570027 C 13.976093,3.594629 11.842748,1.91443 12.084848,2.489769 l 0.375558,0.892491 c 0.2421,0.575338 1.015792,1.154532 2.471613,3.129928 1.455822,1.975397 1.994682,3.797526 2.112206,3.611265 L 17.453494,9.474814 C 17.571015,9.288552 16.887736,7.545422 15.431915,5.570027 z"
       id="rect5048-2-1-7-0"
       inkscape:connector-curvature="0"
       sodipodi:nodetypes="sssssss" />
    <path
       style="fill:#84a621;fill-opacity:0.82352941"
       d="m -0.1765124,31.430543 5.709361,-4.723188 2.262321,-0.46559 -7.640151,5.572012 z"
       id="rect5572"
       inkscape:connector-curvature="0"
       sodipodi:nodetypes="ccccc" />
    <path
       style="fill:#84a621;fill-opacity:0.82352941"
       d="M 31.26064,11.055294 25.114756,3.404454 22.679466,2.65027 c 1.514107,3.70993 1.365267,8.370114 8.224294,9.025804 z"
       id="rect5572-8"
       inkscape:connector-curvature="0"
       sodipodi:nodetypes="ccccc" />
    <path
       style="fill:#84a621;fill-opacity:0.82352941"
       d="m 0.2417606,31.47289 6.414272,-3.709772 2.308223,-0.08354 -8.45919,4.226267 z"
       id="rect5572-5"
       inkscape:connector-curvature="0"
       sodipodi:nodetypes="ccccc" />
    <path
       style="fill:#84a621;fill-opacity:0.82352941"
       d="m 0.3115306,30.835879 6.414272,-3.709772 2.308223,-0.08354 -8.45919,4.226267 z"
       id="rect5572-5-8"
       inkscape:connector-curvature="0"
       sodipodi:nodetypes="ccccc" />
    <path
       style="fill:#84a621;fill-opacity:0.82352941"
       d="m 1.0925906,30.94777 6.890376,-2.725437 2.2953864,0.257055 -8.9890394,2.935372 z"
       id="rect5572-5-8-7"
       inkscape:connector-curvature="0"
       sodipodi:nodetypes="ccccc"
       inkscape:transform-center-x="-2.3332616"
       inkscape:transform-center-y="2.3696505" />
  </g>
</svg>
