<?xml version="1.0" encoding="UTF-8" standalone="no"?>
<!-- Created with Inkscape (http://www.inkscape.org/) -->

<svg
   xmlns:dc="http://purl.org/dc/elements/1.1/"
   xmlns:cc="http://creativecommons.org/ns#"
   xmlns:rdf="http://www.w3.org/1999/02/22-rdf-syntax-ns#"
   xmlns:svg="http://www.w3.org/2000/svg"
   xmlns="http://www.w3.org/2000/svg"
   xmlns:sodipodi="http://sodipodi.sourceforge.net/DTD/sodipodi-0.dtd"
   xmlns:inkscape="http://www.inkscape.org/namespaces/inkscape"
   width="32px"
   height="32px"
   id="svg3003"
   version="1.1"
   inkscape:version="0.48.4 r9939"
   sodipodi:docname="mountain_inside_1.svg"
   inkscape:export-filename="C:\Users\Administrador\Desktop\mountain_top_2.png"
   inkscape:export-xdpi="90"
   inkscape:export-ydpi="90">
  <defs
     id="defs3005" />
  <sodipodi:namedview
     id="base"
     pagecolor="#ffffff"
     bordercolor="#666666"
     borderopacity="1.0"
     inkscape:pageopacity="0.0"
     inkscape:pageshadow="2"
     inkscape:zoom="9.8442522"
     inkscape:cx="16.865137"
     inkscape:cy="6.9394143"
     inkscape:current-layer="layer1"
     showgrid="true"
     inkscape:grid-bbox="true"
     inkscape:document-units="px"
     inkscape:window-width="974"
     inkscape:window-height="834"
     inkscape:window-x="815"
     inkscape:window-y="113"
     inkscape:window-maximized="0"
     inkscape:snap-grids="false"
     inkscape:snap-page="false"
     inkscape:snap-to-guides="false"
     showguides="true"
     inkscape:guide-bbox="true" />
  <metadata
     id="metadata3008">
    <rdf:RDF>
      <cc:Work
         rdf:about="">
        <dc:format>image/svg+xml</dc:format>
        <dc:type
           rdf:resource="http://purl.org/dc/dcmitype/StillImage" />
        <dc:title></dc:title>
      </cc:Work>
    </rdf:RDF>
  </metadata>
  <g
     id="layer1"
     inkscape:label="Layer 1"
     inkscape:groupmode="layer">
    <rect
       style="fill:#865a2c;fill-opacity:0.94179891"
       id="rect3789"
       width="32.011185"
       height="32.037804"
       x="-31.853916"
       y="0.14167023"
       transform="scale(-1,1)" />
    <path
       style="fill:#504416;fill-opacity:0.82352941"
       d="m 21.589225,19.099071 4.266451,-0.609492 c 1.22564,-0.175092 2.234807,3.047463 2.234807,3.047463 l 0,0 c 0,0 -3.261443,-0.130688 -4.063285,0.812656 l -1.726897,2.031643 c -0.801843,0.943344 -2.8443,-1.606216 -2.8443,-2.844299 l 0,-0.812657 c 0,-1.238083 0.907585,-1.450222 2.133224,-1.625314 z"
       id="rect3842"
       inkscape:connector-curvature="0"
       sodipodi:nodetypes="sssssssss" />
    <path
       style="fill:#b37b00;fill-opacity:1"
       d="m 21.436852,18.492127 4.26645,-0.609492 c 1.22564,-0.175092 2.234807,3.047463 2.234807,3.047463 l 0,0 c 0,0 -3.261443,-0.130688 -4.063285,0.812656 l -1.726897,2.031643 c -0.801843,0.943344 -2.8443,-1.606216 -2.8443,-2.844299 l 0,-0.812657 c 0,-1.238083 0.907585,-1.450222 2.133225,-1.625314 z"
       id="rect3842-8"
       inkscape:connector-curvature="0"
       sodipodi:nodetypes="sssssssss" />
    <path
       style="fill:#ce9716;fill-opacity:1"
       d="m 21.538434,19.203201 4.266451,-0.609492 c 1.22564,-0.175092 0.711074,1.117403 0.711074,1.117403 l -1.93006,0.203164 c 0,0 -0.806003,0.129653 -2.031642,0.304745 l -2.133226,0.304748 c -1.225639,0.175092 1.238083,-0.101582 0,-0.101582 l -0.406328,0 c -1.238084,0 0.298092,-1.043894 1.523731,-1.218986 z"
       id="rect3842-8-2"
       inkscape:connector-curvature="0"
       sodipodi:nodetypes="sssssssss" />
    <path
       style="fill:#504416;fill-opacity:0.82352941"
       d="m 23.747847,26.211093 -4.26645,-0.609492 c -1.22564,-0.175092 -2.234807,3.047463 -2.234807,3.047463 l 0,0 c 0,0 3.261442,-0.130688 4.063285,0.812656 l 1.726897,2.031643 c 0.801843,0.943344 2.844299,-1.606216 2.844299,-2.844299 l 0,-0.812657 c 0,-1.238083 -0.907584,-1.450222 -2.133224,-1.625314 z"
       id="rect3842-6"
       inkscape:connector-curvature="0"
       sodipodi:nodetypes="sssssssss" />
    <path
       style="fill:#b37b00;fill-opacity:1"
       d="M 23.900221,25.604149 19.63377,24.994657 c -1.22564,-0.175092 -2.234806,3.047463 -2.234806,3.047463 l 0,0 c 0,0 3.261442,-0.130688 4.063284,0.812656 l 1.726898,2.031643 c 0.801842,0.943344 2.844299,-1.606216 2.844299,-2.844299 l 0,-0.812657 c 0,-1.238083 -0.907585,-1.450222 -2.133224,-1.625314 z"
       id="rect3842-8-23"
       inkscape:connector-curvature="0"
       sodipodi:nodetypes="sssssssss" />
    <path
       style="fill:#ce9716;fill-opacity:1"
       d="m 23.798639,26.315223 -4.266451,-0.609492 c -1.22564,-0.175092 -0.711074,1.117403 -0.711074,1.117403 l 1.93006,0.203164 c 0,0 0.806003,0.129653 2.031643,0.304745 l 2.133225,0.304748 c 1.225639,0.175092 -1.238084,-0.101582 -1e-6,-0.101582 l 0.406329,0 c 1.238083,0 -0.298092,-1.043894 -1.523731,-1.218986 z"
       id="rect3842-8-2-8"
       inkscape:connector-curvature="0"
       sodipodi:nodetypes="sssssssss" />
    <path
       style="fill:#3f3000;fill-opacity:0.82352941"
       d="m 27.45683,26.138875 c 0,-3.010792 1.225278,-6.197521 1.42215,-5.434643 l 0.812657,3.149046 c 0.196871,0.762877 1.523732,0.290626 1.523732,3.301419 0,3.010793 0.27996,4.418823 -0.507911,4.418823 l -1.828478,0 c -0.787871,0 -1.42215,-2.423851 -1.42215,-5.434645 z"
       id="rect5048"
       inkscape:connector-curvature="0"
       sodipodi:nodetypes="sssssss" />
    <path
       style="fill:#b27700;fill-opacity:0.82352941"
       d="m 27.247186,25.556016 c 0,-3.010794 1.225278,-6.197523 1.42215,-5.434645 l 0.812657,3.149047 c 0.196871,0.762877 1.523731,0.290626 1.523731,3.301419 0,3.010792 0.27996,4.418822 -0.50791,4.418822 l -1.828478,0 c -0.787871,0 -1.42215,-2.423851 -1.42215,-5.434643 z"
       id="rect5048-2"
       inkscape:connector-curvature="0"
       sodipodi:nodetypes="sssssss" />
    <path
       style="fill:#cea000;fill-opacity:0.82352941"
       d="m 27.650584,25.412297 c 0,-2.453898 0.720541,-5.072113 0.86698,-4.465332 l 0.227162,0.941265 c 0.146439,0.60678 -0.132768,1.532041 -0.132768,3.985938 0,2.453896 0.647229,4.240406 0.442119,4.160189 l -0.714281,-0.279351 c -0.205108,-0.08022 -0.689212,-1.888813 -0.689212,-4.342709 z"
       id="rect5048-2-1"
       inkscape:connector-curvature="0"
       sodipodi:nodetypes="sssssss" />
    <path
       style="fill:#504416;fill-opacity:0.82352941"
       d="M 4.8541905,2.5418224 9.1206399,1.9323304 C 10.34628,1.7572384 11.355447,4.9797935 11.355447,4.9797935 l 0,0 c 0,0 -3.2614425,-0.130688 -4.0632845,0.812656 l -1.726897,2.031643 c -0.801842,0.943344 -2.844299,-1.606216 -2.844299,-2.844299 l 0,-0.812657 c 0,-1.2380831 0.907585,-1.4502221 2.133224,-1.6253141 z"
       id="rect3842-4"
       inkscape:connector-curvature="0"
       sodipodi:nodetypes="sssssssss" />
    <path
       style="fill:#b37b00;fill-opacity:1"
       d="m 4.7018175,1.9348784 4.2664484,-0.609492 c 1.2256401,-0.175092 2.2348071,3.0474631 2.2348071,3.0474631 l 0,0 c 0,0 -3.2614425,-0.130688 -4.0632845,0.812656 l -1.726897,2.031643 c -0.801842,0.943344 -2.844299,-1.606216 -2.844299,-2.844299 l 0,-0.8126571 c 0,-1.238083 0.907585,-1.450222 2.133225,-1.625314 z"
       id="rect3842-8-6"
       inkscape:connector-curvature="0"
       sodipodi:nodetypes="sssssssss" />
    <path
       style="fill:#ce9716;fill-opacity:1"
       d="m 4.8033995,2.6459524 4.2664494,-0.609492 c 1.2256401,-0.175092 0.711074,1.117403 0.711074,1.117403 l -1.9300594,0.203164 c 0,0 -0.806003,0.129653 -2.031642,0.3047451 l -2.133225,0.304748 c -1.225639,0.175092 1.238083,-0.101582 0,-0.101582 l -0.406328,0 c -1.238084,0 0.298092,-1.0438941 1.523731,-1.2189861 z"
       id="rect3842-8-2-9"
       inkscape:connector-curvature="0"
       sodipodi:nodetypes="sssssssss" />
    <path
       style="fill:#504416;fill-opacity:0.82352941"
       d="M 7.0128115,9.6538445 2.7463625,9.0443525 C 1.5207225,8.8692605 0.51155546,12.091816 0.51155546,12.091816 l 0,0 c 0,0 3.26144204,-0.130688 4.06328504,0.812656 l 1.726897,2.031643 c 0.801842,0.943344 2.8442974,-1.606216 2.8442974,-2.844299 l 0,-0.812657 c 0,-1.238083 -0.907584,-1.4502225 -2.1332234,-1.6253145 z"
       id="rect3842-6-8"
       inkscape:connector-curvature="0"
       sodipodi:nodetypes="sssssssss" />
    <path
       style="fill:#b37b00;fill-opacity:1"
       d="m 7.1651855,9.0469005 -4.26645,-0.609492 C 1.6730955,8.2623165 0.66392946,11.484872 0.66392946,11.484872 l 0,0 c 0,0 3.26144204,-0.130688 4.06328404,0.812656 l 1.726898,2.031643 c 0.801841,0.943344 2.8442974,-1.606216 2.8442974,-2.844299 l 0,-0.812657 c 0,-1.2380835 -0.907585,-1.4502225 -2.1332234,-1.6253145 z"
       id="rect3842-8-23-5"
       inkscape:connector-curvature="0"
       sodipodi:nodetypes="sssssssss" />
    <path
       style="fill:#ce9716;fill-opacity:1"
       d="m 7.0636035,9.7579745 -4.26645,-0.609492 c -1.22564,-0.175092 -0.711074,1.1174035 -0.711074,1.1174035 l 1.93006,0.203164 c 0,0 0.806003,0.129653 2.031643,0.304745 l 2.1332234,0.304748 c 1.225639,0.175092 -1.2380834,-0.101582 -1e-6,-0.101582 l 0.406329,0 c 1.238083,0 -0.298092,-1.0438945 -1.5237304,-1.2189865 z"
       id="rect3842-8-2-8-6"
       inkscape:connector-curvature="0"
       sodipodi:nodetypes="sssssssss" />
    <path
       style="fill:#3f3000;fill-opacity:0.82352941"
       d="m 10.721794,9.5816265 c 0,-3.010792 1.225278,-6.1975211 1.42215,-5.434643 l 0.812657,3.149046 c 0.196871,0.762877 1.523732,0.290626 1.523732,3.3014195 0,3.010793 0.27996,4.418823 -0.507911,4.418823 l -1.828478,0 c -0.787871,0 -1.42215,-2.423851 -1.42215,-5.4346455 z"
       id="rect5048-6"
       inkscape:connector-curvature="0"
       sodipodi:nodetypes="sssssss" />
    <path
       style="fill:#b27700;fill-opacity:0.82352941"
       d="m 10.51215,8.9987675 c 0,-3.010794 1.225278,-6.1975231 1.42215,-5.4346451 l 0.812657,3.1490471 c 0.196871,0.762877 1.523732,0.290626 1.523732,3.3014195 0,3.010792 0.27996,4.418822 -0.507911,4.418822 l -1.828478,0 c -0.787871,0 -1.42215,-2.423851 -1.42215,-5.4346435 z"
       id="rect5048-2-0"
       inkscape:connector-curvature="0"
       sodipodi:nodetypes="sssssss" />
    <path
       style="fill:#cea000;fill-opacity:0.82352941"
       d="m 10.915548,8.8550485 c 0,-2.453898 0.720541,-5.072113 0.86698,-4.465332 l 0.227162,0.941265 c 0.146439,0.60678 -0.132768,1.532041 -0.132768,3.985938 0,2.4538965 0.647229,4.2404065 0.442119,4.1601895 L 11.60476,13.197758 c -0.205108,-0.08022 -0.689212,-1.888813 -0.689212,-4.3427095 z"
       id="rect5048-2-1-7"
       inkscape:connector-curvature="0"
       sodipodi:nodetypes="sssssss" />
    <path
       style="fill:#504416;fill-opacity:0.82352941"
       d="m 21.107329,2.6434045 4.26645,-0.609492 c 1.22564,-0.175092 2.234807,3.047463 2.234807,3.047463 l 0,0 c 0,0 -3.261443,-0.130688 -4.063285,0.812656 l -1.726897,2.031643 c -0.801842,0.943344 -2.844299,-1.606216 -2.844299,-2.844299 l 0,-0.812657 c 0,-1.238083 0.907585,-1.450222 2.133224,-1.625314 z"
       id="rect3842-4-2"
       inkscape:connector-curvature="0"
       sodipodi:nodetypes="sssssssss" />
    <path
       style="fill:#b37b00;fill-opacity:1"
       d="m 20.954956,2.0364605 4.266449,-0.609492 c 1.22564,-0.175092 2.234807,3.047463 2.234807,3.047463 l 0,0 c 0,0 -3.261443,-0.130688 -4.063285,0.812656 l -1.726897,2.031643 c -0.801842,0.943344 -2.844299,-1.606216 -2.844299,-2.844299 l 0,-0.812657 c 0,-1.238083 0.907585,-1.450222 2.133225,-1.625314 z"
       id="rect3842-8-6-7"
       inkscape:connector-curvature="0"
       sodipodi:nodetypes="sssssssss" />
    <path
       style="fill:#ce9716;fill-opacity:1"
       d="m 21.056538,2.7475345 4.26645,-0.609492 c 1.22564,-0.175092 0.711074,1.117403 0.711074,1.117403 l -1.93006,0.203164 c 0,0 -0.806003,0.129653 -2.031642,0.304745 l -2.133225,0.304748 c -1.225639,0.175092 1.238083,-0.101582 0,-0.101582 l -0.406328,0 c -1.238084,0 0.298092,-1.043894 1.523731,-1.218986 z"
       id="rect3842-8-2-9-2"
       inkscape:connector-curvature="0"
       sodipodi:nodetypes="sssssssss" />
    <path
       style="fill:#504416;fill-opacity:0.82352941"
       d="m 23.26595,9.7554265 -4.266449,-0.609492 c -1.22564,-0.175092 -2.234807,3.0474625 -2.234807,3.0474625 l 0,0 c 0,0 3.261442,-0.130688 4.063285,0.812656 l 1.726897,2.031643 c 0.801842,0.943344 2.844298,-1.606216 2.844298,-2.844299 l 0,-0.812657 c 0,-1.238083 -0.907584,-1.4502215 -2.133224,-1.6253135 z"
       id="rect3842-6-8-6"
       inkscape:connector-curvature="0"
       sodipodi:nodetypes="sssssssss" />
    <path
       style="fill:#b37b00;fill-opacity:1"
       d="m 23.418324,9.1484825 -4.26645,-0.609492 c -1.22564,-0.175092 -2.234806,3.0474625 -2.234806,3.0474625 l 0,0 c 0,0 3.261442,-0.130688 4.063284,0.812656 l 1.726898,2.031643 c 0.801841,0.943344 2.844298,-1.606216 2.844298,-2.844299 l 0,-0.812657 c 0,-1.2380825 -0.907585,-1.4502215 -2.133224,-1.6253135 z"
       id="rect3842-8-23-5-4"
       inkscape:connector-curvature="0"
       sodipodi:nodetypes="sssssssss" />
    <path
       style="fill:#ce9716;fill-opacity:1"
       d="m 23.316742,9.8595565 -4.26645,-0.609492 c -1.22564,-0.175092 -0.711074,1.1174025 -0.711074,1.1174025 l 1.93006,0.203164 c 0,0 0.806003,0.129653 2.031643,0.304745 l 2.133224,0.304748 c 1.225639,0.175092 -1.238084,-0.101582 -1e-6,-0.101582 l 0.406329,0 c 1.238083,0 -0.298092,-1.043894 -1.523731,-1.2189855 z"
       id="rect3842-8-2-8-6-7"
       inkscape:connector-curvature="0"
       sodipodi:nodetypes="sssssssss" />
    <path
       style="fill:#3f3000;fill-opacity:0.82352941"
       d="m 26.974933,9.6832085 c 0,-3.010792 1.225278,-6.197521 1.42215,-5.434643 l 0.812657,3.149046 c 0.196871,0.762877 1.523732,0.290626 1.523732,3.3014185 0,3.010793 0.27996,4.418823 -0.507911,4.418823 l -1.828478,0 c -0.787871,0 -1.42215,-2.423851 -1.42215,-5.4346445 z"
       id="rect5048-6-1"
       inkscape:connector-curvature="0"
       sodipodi:nodetypes="sssssss" />
    <path
       style="fill:#b27700;fill-opacity:0.82352941"
       d="m 26.765289,9.1003495 c 0,-3.010794 1.225278,-6.197523 1.42215,-5.434645 l 0.812657,3.149047 c 0.196871,0.762877 1.523732,0.290626 1.523732,3.3014185 0,3.010792 0.27996,4.418822 -0.507911,4.418822 l -1.828478,0 c -0.787871,0 -1.42215,-2.423851 -1.42215,-5.4346425 z"
       id="rect5048-2-0-3"
       inkscape:connector-curvature="0"
       sodipodi:nodetypes="sssssss" />
    <path
       style="fill:#cea000;fill-opacity:0.82352941"
       d="m 27.168687,8.9566305 c 0,-2.453898 0.720541,-5.072113 0.86698,-4.465332 l 0.227162,0.941265 c 0.146439,0.60678 -0.132768,1.532041 -0.132768,3.985938 0,2.4538955 0.647229,4.2404055 0.442119,4.1601885 l -0.714281,-0.279351 c -0.205108,-0.08022 -0.689212,-1.888813 -0.689212,-4.3427085 z"
       id="rect5048-2-1-7-2"
       inkscape:connector-curvature="0"
       sodipodi:nodetypes="sssssss" />
    <path
       style="fill:#504416;fill-opacity:0.82352941"
       d="m 5.7654033,16.458573 4.2664487,-0.609492 c 1.22564,-0.175092 2.234808,3.047463 2.234808,3.047463 l 0,0 c 0,0 -3.2614427,-0.130688 -4.0632847,0.812656 l -1.726897,2.031643 c -0.801842,0.943344 -2.844299,-1.606216 -2.844299,-2.844299 l 0,-0.812657 c 0,-1.238083 0.907585,-1.450222 2.133224,-1.625314 z"
       id="rect3842-4-1"
       inkscape:connector-curvature="0"
       sodipodi:nodetypes="sssssssss" />
    <path
       style="fill:#b37b00;fill-opacity:1"
       d="m 5.6130303,15.851629 4.266448,-0.609492 C 11.105118,15.067045 12.114286,18.2896 12.114286,18.2896 l 0,0 c 0,0 -3.2614427,-0.130688 -4.0632847,0.812656 l -1.726897,2.031643 C 5.5222623,22.077243 3.4798053,19.527683 3.4798053,18.2896 l 0,-0.812657 c 0,-1.238083 0.907585,-1.450222 2.133225,-1.625314 z"
       id="rect3842-8-6-6"
       inkscape:connector-curvature="0"
       sodipodi:nodetypes="sssssssss" />
    <path
       style="fill:#ce9716;fill-opacity:1"
       d="m 5.7146123,16.562703 4.266449,-0.609492 c 1.2256397,-0.175092 0.7110737,1.117403 0.7110737,1.117403 l -1.9300587,0.203164 c 0,0 -0.806003,0.129653 -2.031642,0.304745 l -2.133225,0.304748 c -1.225639,0.175092 1.238083,-0.101582 0,-0.101582 l -0.406328,0 c -1.238084,0 0.298092,-1.043894 1.523731,-1.218986 z"
       id="rect3842-8-2-9-3"
       inkscape:connector-curvature="0"
       sodipodi:nodetypes="sssssssss" />
    <path
       style="fill:#504416;fill-opacity:0.82352941"
       d="M 7.9240243,23.570595 3.6575753,22.961103 C 2.4319352,22.786011 1.4227682,26.008567 1.4227682,26.008567 l 0,0 c 0,0 3.2614421,-0.130688 4.0632851,0.812656 l 1.726897,2.031643 c 0.801842,0.943344 2.8442967,-1.606216 2.8442967,-2.844299 l 0,-0.812658 c 0,-1.238083 -0.9075837,-1.450222 -2.1332227,-1.625314 z"
       id="rect3842-6-8-8"
       inkscape:connector-curvature="0"
       sodipodi:nodetypes="sssssssss" />
    <path
       style="fill:#b37b00;fill-opacity:1"
       d="m 8.0763983,22.963651 -4.26645,-0.609492 C 2.5843082,22.179067 1.5751422,25.401623 1.5751422,25.401623 l 0,0 c 0,0 3.2614421,-0.130688 4.0632841,0.812656 l 1.726898,2.031643 c 0.801841,0.943344 2.8442967,-1.606216 2.8442967,-2.844299 l 0,-0.812658 c 0,-1.238083 -0.9075847,-1.450222 -2.1332227,-1.625314 z"
       id="rect3842-8-23-5-3"
       inkscape:connector-curvature="0"
       sodipodi:nodetypes="sssssssss" />
    <path
       style="fill:#ce9716;fill-opacity:1"
       d="m 7.9748163,23.674725 -4.26645,-0.609492 c -1.2256401,-0.175092 -0.711074,1.117403 -0.711074,1.117403 l 1.93006,0.203164 c 0,0 0.806003,0.129653 2.031643,0.304745 l 2.133223,0.304748 c 1.2256387,0.175092 -1.238083,-0.101582 -1e-6,-0.101582 l 0.406329,0 c 1.2380827,0 -0.298092,-1.043894 -1.52373,-1.218986 z"
       id="rect3842-8-2-8-6-2"
       inkscape:connector-curvature="0"
       sodipodi:nodetypes="sssssssss" />
    <path
       style="fill:#3f3000;fill-opacity:0.82352941"
       d="m 11.633007,23.498377 c 0,-3.010792 1.225278,-6.197521 1.42215,-5.434643 l 0.812657,3.149046 c 0.196871,0.762877 1.523732,0.290626 1.523732,3.301419 0,3.010794 0.27996,4.418824 -0.507911,4.418824 l -1.828478,0 c -0.787871,0 -1.42215,-2.423851 -1.42215,-5.434646 z"
       id="rect5048-6-8"
       inkscape:connector-curvature="0"
       sodipodi:nodetypes="sssssss" />
    <path
       style="fill:#b27700;fill-opacity:0.82352941"
       d="m 11.423363,22.915518 c 0,-3.010794 1.225278,-6.197523 1.42215,-5.434645 l 0.812657,3.149047 c 0.196871,0.762877 1.523732,0.290626 1.523732,3.301419 0,3.010793 0.27996,4.418823 -0.507911,4.418823 l -1.828478,0 c -0.787871,0 -1.42215,-2.423851 -1.42215,-5.434644 z"
       id="rect5048-2-0-6"
       inkscape:connector-curvature="0"
       sodipodi:nodetypes="sssssss" />
    <path
       style="fill:#cea000;fill-opacity:0.82352941"
       d="m 11.826761,22.771799 c 0,-2.453898 0.720541,-5.072113 0.86698,-4.465332 l 0.227162,0.941265 c 0.146439,0.60678 -0.132768,1.532041 -0.132768,3.985938 0,2.453897 0.647229,4.240407 0.442119,4.16019 l -0.714281,-0.279351 c -0.205108,-0.08022 -0.689212,-1.888814 -0.689212,-4.34271 z"
       id="rect5048-2-1-7-0"
       inkscape:connector-curvature="0"
       sodipodi:nodetypes="sssssss" />
    <path
       style="fill:#504416;fill-opacity:0.82352941"
       d="m 13.688809,11.176303 4.266449,-0.609492 c 1.22564,-0.175092 2.234808,3.047463 2.234808,3.047463 l 0,0 c 0,0 -3.261443,-0.130688 -4.063285,0.812656 l -1.726897,2.031643 c -0.801842,0.943344 -2.844299,-1.606216 -2.844299,-2.844299 l 0,-0.812657 c 0,-1.238083 0.907585,-1.450222 2.133224,-1.625314 z"
       id="rect3842-4-1-1"
       inkscape:connector-curvature="0"
       sodipodi:nodetypes="sssssssss" />
    <path
       style="fill:#b37b00;fill-opacity:1"
       d="m 13.536436,10.569359 4.266448,-0.6094925 c 1.22564,-0.175092 2.234808,3.0474635 2.234808,3.0474635 l 0,0 c 0,0 -3.261443,-0.130688 -4.063285,0.812656 l -1.726897,2.031643 c -0.801842,0.943344 -2.844299,-1.606216 -2.844299,-2.844299 l 0,-0.812657 c 0,-1.238083 0.907585,-1.450222 2.133225,-1.625314 z"
       id="rect3842-8-6-6-2"
       inkscape:connector-curvature="0"
       sodipodi:nodetypes="sssssssss" />
    <path
       style="fill:#ce9716;fill-opacity:1"
       d="m 13.638018,11.280433 4.266449,-0.609492 c 1.22564,-0.175092 0.711074,1.117403 0.711074,1.117403 l -1.930059,0.203164 c 0,0 -0.806003,0.129653 -2.031642,0.304745 l -2.133225,0.304748 c -1.225639,0.175092 1.238083,-0.101582 0,-0.101582 l -0.406328,0 c -1.238084,0 0.298092,-1.043894 1.523731,-1.218986 z"
       id="rect3842-8-2-9-3-6"
       inkscape:connector-curvature="0"
       sodipodi:nodetypes="sssssssss" />
    <path
       style="fill:#504416;fill-opacity:0.82352941"
       d="m 15.84743,18.288325 -4.266449,-0.609492 c -1.22564,-0.175092 -2.2348073,3.047464 -2.2348073,3.047464 l 0,0 c 0,0 3.2614423,-0.130688 4.0632853,0.812656 l 1.726897,2.031643 c 0.801842,0.943344 2.844297,-1.606216 2.844297,-2.844299 l 0,-0.812658 c 0,-1.238083 -0.907584,-1.450222 -2.133223,-1.625314 z"
       id="rect3842-6-8-8-0"
       inkscape:connector-curvature="0"
       sodipodi:nodetypes="sssssssss" />
    <path
       style="fill:#b37b00;fill-opacity:1"
       d="m 15.999804,17.681381 -4.26645,-0.609492 c -1.22564,-0.175092 -2.2348063,3.047464 -2.2348063,3.047464 l 0,0 c 0,0 3.2614423,-0.130688 4.0632843,0.812656 l 1.726898,2.031643 c 0.801841,0.943344 2.844297,-1.606216 2.844297,-2.844299 l 0,-0.812658 c 0,-1.238083 -0.907585,-1.450222 -2.133223,-1.625314 z"
       id="rect3842-8-23-5-3-5"
       inkscape:connector-curvature="0"
       sodipodi:nodetypes="sssssssss" />
    <path
       style="fill:#ce9716;fill-opacity:1"
       d="m 15.898222,18.392455 -4.26645,-0.609492 c -1.22564,-0.175092 -0.711074,1.117403 -0.711074,1.117403 l 1.93006,0.203164 c 0,0 0.806003,0.129653 2.031643,0.304745 l 2.133223,0.304748 c 1.225639,0.175092 -1.238083,-0.101582 -10e-7,-0.101582 l 0.406329,0 c 1.238083,0 -0.298092,-1.043894 -1.52373,-1.218986 z"
       id="rect3842-8-2-8-6-2-4"
       inkscape:connector-curvature="0"
       sodipodi:nodetypes="sssssssss" />
    <path
       style="fill:#3f3000;fill-opacity:0.82352941"
       d="m 19.556413,18.216107 c 0,-3.010792 1.225278,-6.197521 1.42215,-5.434643 l 0.812657,3.149046 c 0.196871,0.762877 1.523732,0.290626 1.523732,3.301419 0,3.010794 0.27996,4.418824 -0.507911,4.418824 l -1.828478,0 c -0.787871,0 -1.42215,-2.423851 -1.42215,-5.434646 z"
       id="rect5048-6-8-6"
       inkscape:connector-curvature="0"
       sodipodi:nodetypes="sssssss" />
    <path
       style="fill:#b27700;fill-opacity:0.82352941"
       d="m 19.346769,17.633248 c 0,-3.010794 1.225278,-6.197523 1.42215,-5.434645 l 0.812657,3.149047 c 0.196871,0.762877 1.523732,0.290626 1.523732,3.301419 0,3.010793 0.27996,4.418823 -0.507911,4.418823 l -1.828478,0 c -0.787871,0 -1.42215,-2.423851 -1.42215,-5.434644 z"
       id="rect5048-2-0-6-7"
       inkscape:connector-curvature="0"
       sodipodi:nodetypes="sssssss" />
    <path
       style="fill:#cea000;fill-opacity:0.82352941"
       d="m 19.750167,17.489529 c 0,-2.453898 0.720541,-5.072113 0.86698,-4.465332 l 0.227162,0.941265 c 0.146439,0.60678 -0.132768,1.532041 -0.132768,3.985938 0,2.453897 0.647229,4.240407 0.442119,4.16019 l -0.714281,-0.279351 c -0.205108,-0.08022 -0.689212,-1.888814 -0.689212,-4.34271 z"
       id="rect5048-2-1-7-0-9"
       inkscape:connector-curvature="0"
       sodipodi:nodetypes="sssssss" />
    <path
       style="fill:#504416;fill-opacity:0.82352941"
       d="m 8.4065385,-4.3657621 4.2664485,-0.609492 c 1.22564,-0.175092 2.234808,3.047463 2.234808,3.047463 l 0,0 c 0,0 -3.261443,-0.130688 -4.063285,0.812656 L 9.1176135,0.91650793 c -0.801842,0.94334397 -2.844299,-1.606216 -2.844299,-2.84429903 l 0,-0.812657 c 0,-1.238083 0.907585,-1.450222 2.133224,-1.625314 z"
       id="rect3842-4-1-1-3"
       inkscape:connector-curvature="0"
       sodipodi:nodetypes="sssssssss" />
    <path
       style="fill:#b37b00;fill-opacity:1"
       d="m 8.2541655,-4.9727061 4.2664475,-0.609492 c 1.22564,-0.175092 2.234808,3.047463 2.234808,3.047463 l 0,0 c 0,0 -3.261443,-0.130688 -4.063285,0.812656 L 8.9652395,0.30956393 C 8.1633975,1.2529079 6.1209405,-1.2966521 6.1209405,-2.5347351 l 0,-0.812657 c 0,-1.238083 0.907585,-1.450222 2.133225,-1.625314 z"
       id="rect3842-8-6-6-2-4"
       inkscape:connector-curvature="0"
       sodipodi:nodetypes="sssssssss" />
    <path
       style="fill:#ce9716;fill-opacity:1"
       d="m 8.3557475,-4.2616321 4.2664485,-0.609492 c 1.22564,-0.175092 0.711074,1.117403 0.711074,1.117403 l -1.930059,0.203164 c 0,0 -0.806003,0.129653 -2.0316415,0.304745 l -2.133225,0.304748 c -1.225639,0.175092 1.238083,-0.101582 0,-0.101582 l -0.406328,0 c -1.238084,0 0.298092,-1.043894 1.523731,-1.218986 z"
       id="rect3842-8-2-9-3-6-7"
       inkscape:connector-curvature="0"
       sodipodi:nodetypes="sssssssss" />
    <path
       style="fill:#504416;fill-opacity:0.82352941"
       d="M 10.565159,2.7462599 6.2987105,2.1367679 c -1.22564,-0.175092 -2.234807,3.047465 -2.234807,3.047465 l 0,0 c 0,0 3.261442,-0.130688 4.063285,0.812656 l 1.726897,2.031643 c 0.8018415,0.943344 2.8442965,-1.606216 2.8442965,-2.844299 l 0,-0.812659 c 0,-1.238083 -0.907584,-1.450222 -2.133223,-1.625314 z"
       id="rect3842-6-8-8-0-8"
       inkscape:connector-curvature="0"
       sodipodi:nodetypes="sssssssss" />
    <path
       style="fill:#b37b00;fill-opacity:1"
       d="M 10.717533,2.1393159 6.4510835,1.5298239 c -1.22564,-0.175092 -2.234806,3.047465 -2.234806,3.047465 l 0,0 c 0,0 3.261442,-0.130688 4.063284,0.812656 l 1.7268975,2.031643 c 0.801841,0.943344 2.844297,-1.606216 2.844297,-2.844299 l 0,-0.812659 c 0,-1.238083 -0.907585,-1.450222 -2.133223,-1.625314 z"
       id="rect3842-8-23-5-3-5-8"
       inkscape:connector-curvature="0"
       sodipodi:nodetypes="sssssssss" />
    <path
       style="fill:#ce9716;fill-opacity:1"
       d="M 10.615951,2.8503899 6.3495015,2.2408979 c -1.22564,-0.175092 -0.711074,1.117403 -0.711074,1.117403 l 1.93006,0.203164 c 0,0 0.806003,0.129653 2.031643,0.304745 l 2.1332225,0.304748 c 1.225639,0.175092 -1.238083,-0.101582 -10e-7,-0.101582 l 0.406329,0 c 1.238083,0 -0.298092,-1.043894 -1.52373,-1.218986 z"
       id="rect3842-8-2-8-6-2-4-1"
       inkscape:connector-curvature="0"
       sodipodi:nodetypes="sssssssss" />
    <path
       style="fill:#3f3000;fill-opacity:0.82352941"
       d="m 14.274142,2.6740419 c 0,-3.01079197 1.225278,-6.197521 1.42215,-5.434643 l 0.812657,3.14904603 c 0.196871,0.76287697 1.523732,0.290626 1.523732,3.30141897 0,3.010795 0.27996,4.418825 -0.507911,4.418825 l -1.828478,0 c -0.787871,0 -1.42215,-2.423851 -1.42215,-5.434647 z"
       id="rect5048-6-8-6-6"
       inkscape:connector-curvature="0"
       sodipodi:nodetypes="sssssss" />
    <path
       style="fill:#b27700;fill-opacity:0.82352941"
       d="m 14.064498,2.0911829 c 0,-3.01079397 1.225278,-6.197523 1.42215,-5.434645 l 0.812657,3.14904703 c 0.196871,0.762877 1.523732,0.290626 1.523732,3.30141897 0,3.010794 0.27996,4.418824 -0.507911,4.418824 l -1.828478,0 c -0.787871,0 -1.42215,-2.423851 -1.42215,-5.434645 z"
       id="rect5048-2-0-6-7-3"
       inkscape:connector-curvature="0"
       sodipodi:nodetypes="sssssss" />
    <path
       style="fill:#cea000;fill-opacity:0.82352941"
       d="m 14.467896,1.9474639 c 0,-2.45389797 0.720541,-5.072113 0.86698,-4.465332 l 0.227162,0.941265 c 0.146439,0.60678003 -0.132768,1.53204103 -0.132768,3.985938 0,2.453898 0.647229,4.240408 0.442119,4.160191 L 15.157108,6.2901749 C 14.952,6.2099549 14.467896,4.4013599 14.467896,1.9474639 z"
       id="rect5048-2-1-7-0-9-8"
       inkscape:connector-curvature="0"
       sodipodi:nodetypes="sssssss" />
    <path
       style="fill:#504416;fill-opacity:0.82352941"
       d="m 3.5305965,19.302872 4.266449,-0.609492 c 1.22564,-0.175092 2.2348075,3.047463 2.2348075,3.047463 l 0,0 c 0,0 -3.2614425,-0.130688 -4.0632845,0.812656 l -1.726897,2.031643 c -0.801842,0.943344 -2.844299,-1.606216 -2.844299,-2.844299 l 0,-0.812657 c 0,-1.238083 0.907585,-1.450222 2.133224,-1.625314 z"
       id="rect3842-4-1-1-3-7"
       inkscape:connector-curvature="0"
       sodipodi:nodetypes="sssssssss" />
    <path
       style="fill:#b37b00;fill-opacity:1"
       d="m 3.3782235,18.695928 4.266448,-0.609492 c 1.22564,-0.175092 2.234807,3.047463 2.234807,3.047463 l 0,0 c 0,0 -3.261442,-0.130688 -4.063284,0.812656 l -1.726897,2.031643 c -0.801842,0.943344 -2.844299,-1.606216 -2.844299,-2.844299 l 0,-0.812657 c 0,-1.238083 0.907585,-1.450222 2.133225,-1.625314 z"
       id="rect3842-8-6-6-2-4-6"
       inkscape:connector-curvature="0"
       sodipodi:nodetypes="sssssssss" />
    <path
       style="fill:#ce9716;fill-opacity:1"
       d="m 3.4798055,19.407002 4.266449,-0.609492 c 1.22564,-0.175092 0.711074,1.117403 0.711074,1.117403 l -1.930059,0.203164 c 0,0 -0.806003,0.129653 -2.031642,0.304745 l -2.133225,0.304748 c -1.225639,0.175092 1.238083,-0.101582 0,-0.101582 l -0.406328,0 c -1.23808405,0 0.298092,-1.043894 1.523731,-1.218986 z"
       id="rect3842-8-2-9-3-6-7-1"
       inkscape:connector-curvature="0"
       sodipodi:nodetypes="sssssssss" />
    <path
       style="fill:#504416;fill-opacity:0.82352941"
       d="m 5.6892175,26.414894 -4.266449,-0.609492 c -1.22564005,-0.175092 -2.23480705,3.047465 -2.23480705,3.047465 l 0,0 c 0,0 3.26144205,-0.130688 4.06328505,0.812656 l 1.726897,2.031643 c 0.801842,0.943344 2.844297,-1.606216 2.844297,-2.844299 l 0,-0.812659 c 0,-1.238083 -0.907584,-1.450222 -2.133223,-1.625314 z"
       id="rect3842-6-8-8-0-8-7"
       inkscape:connector-curvature="0"
       sodipodi:nodetypes="sssssssss" />
    <path
       style="fill:#b37b00;fill-opacity:1"
       d="m 5.8415915,25.80795 -4.26645,-0.609492 c -1.22564005,-0.175092 -2.23480605,3.047465 -2.23480605,3.047465 l 0,0 c 0,0 3.26144205,-0.130688 4.06328405,0.812656 l 1.726898,2.031643 c 0.801841,0.943344 2.844297,-1.606216 2.844297,-2.844299 l 0,-0.812659 c 0,-1.238083 -0.907585,-1.450222 -2.133223,-1.625314 z"
       id="rect3842-8-23-5-3-5-8-2"
       inkscape:connector-curvature="0"
       sodipodi:nodetypes="sssssssss" />
    <path
       style="fill:#ce9716;fill-opacity:1"
       d="m 5.7400095,26.519024 -4.26645,-0.609492 C 0.24791945,25.73444 0.76248545,27.026935 0.76248545,27.026935 l 1.93006005,0.203164 c 0,0 0.806003,0.129653 2.031643,0.304745 l 2.133223,0.304748 c 1.225639,0.175092 -1.238083,-0.101582 -1e-6,-0.101582 l 0.406329,0 c 1.238083,0 -0.298092,-1.043894 -1.52373,-1.218986 z"
       id="rect3842-8-2-8-6-2-4-1-3"
       inkscape:connector-curvature="0"
       sodipodi:nodetypes="sssssssss" />
    <path
       style="fill:#3f3000;fill-opacity:0.82352941"
       d="m 9.3981995,26.342676 c 0,-3.010792 1.2252775,-6.197521 1.4221495,-5.434643 l 0.812658,3.149046 c 0.196871,0.762877 1.523732,0.290626 1.523732,3.301419 0,3.010795 0.279959,4.418825 -0.507911,4.418825 l -1.828479,0 c -0.78787,0 -1.4221495,-2.423851 -1.4221495,-5.434647 z"
       id="rect5048-6-8-6-6-7"
       inkscape:connector-curvature="0"
       sodipodi:nodetypes="sssssss" />
    <path
       style="fill:#b27700;fill-opacity:0.82352941"
       d="m 9.1885565,25.759817 c 0,-3.010794 1.2252765,-6.197523 1.4221495,-5.434645 l 0.812657,3.149047 c 0.196871,0.762877 1.523731,0.290626 1.523731,3.301419 0,3.010794 0.27996,4.418824 -0.507911,4.418824 l -1.828478,0 c -0.7878705,0 -1.4221495,-2.423851 -1.4221495,-5.434645 z"
       id="rect5048-2-0-6-7-3-8"
       inkscape:connector-curvature="0"
       sodipodi:nodetypes="sssssss" />
    <path
       style="fill:#cea000;fill-opacity:0.82352941"
       d="m 9.5919535,25.616098 c 0,-2.453898 0.7205415,-5.072113 0.8669795,-4.465332 l 0.227162,0.941265 c 0.14644,0.60678 -0.132768,1.532041 -0.132768,3.985938 0,2.453898 0.647229,4.240408 0.442119,4.160191 L 10.281165,29.958809 C 10.076058,29.878589 9.5919535,28.069994 9.5919535,25.616098 z"
       id="rect5048-2-1-7-0-9-8-5"
       inkscape:connector-curvature="0"
       sodipodi:nodetypes="sssssss" />
  </g>
</svg>
