<?xml version="1.0" encoding="UTF-8" standalone="no"?>
<!-- Created with Inkscape (http://www.inkscape.org/) -->

<svg
   xmlns:dc="http://purl.org/dc/elements/1.1/"
   xmlns:cc="http://creativecommons.org/ns#"
   xmlns:rdf="http://www.w3.org/1999/02/22-rdf-syntax-ns#"
   xmlns:svg="http://www.w3.org/2000/svg"
   xmlns="http://www.w3.org/2000/svg"
   xmlns:sodipodi="http://sodipodi.sourceforge.net/DTD/sodipodi-0.dtd"
   xmlns:inkscape="http://www.inkscape.org/namespaces/inkscape"
   width="32px"
   height="32px"
   id="svg3003"
   version="1.1"
   inkscape:version="0.48.4 r9939"
   sodipodi:docname="mountain_inside_2.svg"
   inkscape:export-filename="C:\Users\Administrador\Desktop\mountain_top_2.png"
   inkscape:export-xdpi="90"
   inkscape:export-ydpi="90">
  <defs
     id="defs3005" />
  <sodipodi:namedview
     id="base"
     pagecolor="#ffffff"
     bordercolor="#666666"
     borderopacity="1.0"
     inkscape:pageopacity="0.0"
     inkscape:pageshadow="2"
     inkscape:zoom="9.8442522"
     inkscape:cx="16.865137"
     inkscape:cy="6.9394143"
     inkscape:current-layer="layer1"
     showgrid="true"
     inkscape:grid-bbox="true"
     inkscape:document-units="px"
     inkscape:window-width="974"
     inkscape:window-height="834"
     inkscape:window-x="815"
     inkscape:window-y="113"
     inkscape:window-maximized="0"
     inkscape:snap-grids="false"
     inkscape:snap-page="false"
     inkscape:snap-to-guides="false"
     showguides="true"
     inkscape:guide-bbox="true" />
  <metadata
     id="metadata3008">
    <rdf:RDF>
      <cc:Work
         rdf:about="">
        <dc:format>image/svg+xml</dc:format>
        <dc:type
           rdf:resource="http://purl.org/dc/dcmitype/StillImage" />
        <dc:title></dc:title>
      </cc:Work>
    </rdf:RDF>
  </metadata>
  <g
     id="layer1"
     inkscape:label="Layer 1"
     inkscape:groupmode="layer">
    <rect
       style="fill:#865a2c;fill-opacity:0.94179891"
       id="rect3789"
       width="32.011185"
       height="32.037804"
       x="-32.057079"
       y="-0.061494011"
       transform="scale(-1,1)" />
    <path
       style="fill:#504416;fill-opacity:0.82352941"
       d="m 24.178334,19.403817 -4.266451,-0.609492 c -1.22564,-0.175092 -2.234807,3.047463 -2.234807,3.047463 l 0,0 c 0,0 3.261443,-0.130688 4.063285,0.812656 l 1.726897,2.031643 c 0.801843,0.943344 2.8443,-1.606216 2.8443,-2.844299 l 0,-0.812657 c 0,-1.238083 -0.907585,-1.450222 -2.133224,-1.625314 z"
       id="rect3842"
       inkscape:connector-curvature="0"
       sodipodi:nodetypes="sssssssss" />
    <path
       style="fill:#b37b00;fill-opacity:1"
       d="m 24.330707,18.796873 -4.26645,-0.609492 c -1.22564,-0.175092 -2.234807,3.047463 -2.234807,3.047463 l 0,0 c 0,0 3.261443,-0.130688 4.063285,0.812656 l 1.726897,2.031643 c 0.801843,0.943344 2.8443,-1.606216 2.8443,-2.844299 l 0,-0.812657 c 0,-1.238083 -0.907585,-1.450222 -2.133225,-1.625314 z"
       id="rect3842-8"
       inkscape:connector-curvature="0"
       sodipodi:nodetypes="sssssssss" />
    <path
       style="fill:#ce9716;fill-opacity:1"
       d="M 24.229125,19.507947 19.962674,18.898455 C 18.737034,18.723363 19.2516,20.015858 19.2516,20.015858 l 1.93006,0.203164 c 0,0 0.806003,0.129653 2.031642,0.304745 l 2.133226,0.304748 c 1.225639,0.175092 -1.238083,-0.101582 0,-0.101582 l 0.406328,0 c 1.238084,0 -0.298092,-1.043894 -1.523731,-1.218986 z"
       id="rect3842-8-2"
       inkscape:connector-curvature="0"
       sodipodi:nodetypes="sssssssss" />
    <path
       style="fill:#504416;fill-opacity:0.82352941"
       d="m 22.019712,26.515839 4.26645,-0.609492 c 1.22564,-0.175092 2.234807,3.047463 2.234807,3.047463 l 0,0 c 0,0 -3.261442,-0.130688 -4.063285,0.812656 l -1.726897,2.031643 c -0.801843,0.943344 -2.844299,-1.606216 -2.844299,-2.844299 l 0,-0.812657 c 0,-1.238083 0.907584,-1.450222 2.133224,-1.625314 z"
       id="rect3842-6"
       inkscape:connector-curvature="0"
       sodipodi:nodetypes="sssssssss" />
    <path
       style="fill:#b37b00;fill-opacity:1"
       d="m 21.867338,25.908895 4.266451,-0.609492 c 1.22564,-0.175092 2.234806,3.047463 2.234806,3.047463 l 0,0 c 0,0 -3.261442,-0.130688 -4.063284,0.812656 l -1.726898,2.031643 c -0.801842,0.943344 -2.844299,-1.606216 -2.844299,-2.844299 l 0,-0.812657 c 0,-1.238083 0.907585,-1.450222 2.133224,-1.625314 z"
       id="rect3842-8-23"
       inkscape:connector-curvature="0"
       sodipodi:nodetypes="sssssssss" />
    <path
       style="fill:#ce9716;fill-opacity:1"
       d="m 21.96892,26.619969 4.266451,-0.609492 c 1.22564,-0.175092 0.711074,1.117403 0.711074,1.117403 l -1.93006,0.203164 c 0,0 -0.806003,0.129653 -2.031643,0.304745 l -2.133225,0.304748 c -1.225639,0.175092 1.238084,-0.101582 10e-7,-0.101582 l -0.406329,0 c -1.238083,0 0.298092,-1.043894 1.523731,-1.218986 z"
       id="rect3842-8-2-8"
       inkscape:connector-curvature="0"
       sodipodi:nodetypes="sssssssss" />
    <path
       style="fill:#504416;fill-opacity:0.82352941"
       d="M 4.4024534,3.1127549 8.3961946,1.4928469 C 9.5434925,1.0274886 11.29967,3.9117768 11.29967,3.9117768 l 0,0 c 0,0 -3.1967798,0.6593049 -3.7475954,1.7681108 L 6.3658031,8.0678798 C 5.8149874,9.1766857 3.2182051,7.1946141 2.919777,5.9930359 L 2.7238938,5.20434 C 2.4254657,4.0027617 3.2551565,3.5781129 4.4024534,3.1127549 z"
       id="rect3842-4"
       inkscape:connector-curvature="0"
       sodipodi:nodetypes="sssssssss" />
    <path
       style="fill:#b37b00;fill-opacity:1"
       d="M 4.108275,2.5604347 8.1020153,0.94052687 C 9.2493132,0.47516861 11.005491,3.3594568 11.005491,3.3594568 l 0,0 c 0,0 -3.1967801,0.6593049 -3.7475958,1.7681108 L 6.0716238,7.5155598 C 5.5208081,8.6243657 2.9240257,6.6422941 2.6255977,5.4407159 L 2.4297144,4.6520199 C 2.1312864,3.4504417 2.9609772,3.0257929 4.108275,2.5604347 z"
       id="rect3842-8-6"
       inkscape:connector-curvature="0"
       sodipodi:nodetypes="sssssssss" />
    <path
       style="fill:#ce9716;fill-opacity:1"
       d="M 4.3782595,3.2260573 8.3720007,1.6061493 C 9.5192987,1.140791 9.3314481,2.5192082 9.3314481,2.5192082 l -1.824181,0.6623961 c 0,0 -0.7509865,0.3201095 -1.8982833,0.7854676 L 3.6121134,4.7770279 C 2.4648165,5.2423859 4.7892062,4.380013 3.587628,4.678441 L 3.1932806,4.7763825 C 1.9917014,5.0748108 3.2309626,3.6914153 4.3782595,3.2260573 z"
       id="rect3842-8-2-9"
       inkscape:connector-curvature="0"
       sodipodi:nodetypes="sssssssss" />
    <path
       style="fill:#504416;fill-opacity:0.82352941"
       d="m 21.107329,2.6434045 4.26645,-0.609492 c 1.22564,-0.175092 2.234807,3.047463 2.234807,3.047463 l 0,0 c 0,0 -3.261443,-0.130688 -4.063285,0.812656 l -1.726897,2.031643 c -0.801842,0.943344 -2.844299,-1.606216 -2.844299,-2.844299 l 0,-0.812657 c 0,-1.238083 0.907585,-1.450222 2.133224,-1.625314 z"
       id="rect3842-4-2"
       inkscape:connector-curvature="0"
       sodipodi:nodetypes="sssssssss" />
    <path
       style="fill:#b37b00;fill-opacity:1"
       d="m 20.954956,2.0364605 4.266449,-0.609492 c 1.22564,-0.175092 2.234807,3.047463 2.234807,3.047463 l 0,0 c 0,0 -3.261443,-0.130688 -4.063285,0.812656 l -1.726897,2.031643 c -0.801842,0.943344 -2.844299,-1.606216 -2.844299,-2.844299 l 0,-0.812657 c 0,-1.238083 0.907585,-1.450222 2.133225,-1.625314 z"
       id="rect3842-8-6-7"
       inkscape:connector-curvature="0"
       sodipodi:nodetypes="sssssssss" />
    <path
       style="fill:#ce9716;fill-opacity:1"
       d="m 21.056538,2.7475345 4.26645,-0.609492 c 1.22564,-0.175092 0.711074,1.117403 0.711074,1.117403 l -1.93006,0.203164 c 0,0 -0.806003,0.129653 -2.031642,0.304745 l -2.133225,0.304748 c -1.225639,0.175092 1.238083,-0.101582 0,-0.101582 l -0.406328,0 c -1.238084,0 0.298092,-1.043894 1.523731,-1.218986 z"
       id="rect3842-8-2-9-2"
       inkscape:connector-curvature="0"
       sodipodi:nodetypes="sssssssss" />
    <path
       style="fill:#504416;fill-opacity:0.82352941"
       d="m 23.26595,9.7554265 -4.266449,-0.609492 c -1.22564,-0.175092 -2.234807,3.0474625 -2.234807,3.0474625 l 0,0 c 0,0 3.261442,-0.130688 4.063285,0.812656 l 1.726897,2.031643 c 0.801842,0.943344 2.844298,-1.606216 2.844298,-2.844299 l 0,-0.812657 c 0,-1.238083 -0.907584,-1.4502215 -2.133224,-1.6253135 z"
       id="rect3842-6-8-6"
       inkscape:connector-curvature="0"
       sodipodi:nodetypes="sssssssss" />
    <path
       style="fill:#b37b00;fill-opacity:1"
       d="m 23.418324,9.1484825 -4.26645,-0.609492 c -1.22564,-0.175092 -2.234806,3.0474625 -2.234806,3.0474625 l 0,0 c 0,0 3.261442,-0.130688 4.063284,0.812656 l 1.726898,2.031643 c 0.801841,0.943344 2.844298,-1.606216 2.844298,-2.844299 l 0,-0.812657 c 0,-1.2380825 -0.907585,-1.4502215 -2.133224,-1.6253135 z"
       id="rect3842-8-23-5-4"
       inkscape:connector-curvature="0"
       sodipodi:nodetypes="sssssssss" />
    <path
       style="fill:#ce9716;fill-opacity:1"
       d="m 23.316742,9.8595565 -4.26645,-0.609492 c -1.22564,-0.175092 -0.711074,1.1174025 -0.711074,1.1174025 l 1.93006,0.203164 c 0,0 0.806003,0.129653 2.031643,0.304745 l 2.133224,0.304748 c 1.225639,0.175092 -1.238084,-0.101582 -1e-6,-0.101582 l 0.406329,0 c 1.238083,0 -0.298092,-1.043894 -1.523731,-1.2189855 z"
       id="rect3842-8-2-8-6-7"
       inkscape:connector-curvature="0"
       sodipodi:nodetypes="sssssssss" />
    <path
       style="fill:#3f3000;fill-opacity:0.82352941"
       d="m 26.974933,9.6832085 c 0,-3.010792 1.225278,-6.197521 1.42215,-5.434643 l 0.812657,3.149046 c 0.196871,0.762877 1.523732,0.290626 1.523732,3.3014185 0,3.010793 0.27996,4.418823 -0.507911,4.418823 l -1.828478,0 c -0.787871,0 -1.42215,-2.423851 -1.42215,-5.4346445 z"
       id="rect5048-6-1"
       inkscape:connector-curvature="0"
       sodipodi:nodetypes="sssssss" />
    <path
       style="fill:#b27700;fill-opacity:0.82352941"
       d="m 26.765289,9.1003495 c 0,-3.010794 1.225278,-6.197523 1.42215,-5.434645 l 0.812657,3.149047 c 0.196871,0.762877 1.523732,0.290626 1.523732,3.3014185 0,3.010792 0.27996,4.418822 -0.507911,4.418822 l -1.828478,0 c -0.787871,0 -1.42215,-2.423851 -1.42215,-5.4346425 z"
       id="rect5048-2-0-3"
       inkscape:connector-curvature="0"
       sodipodi:nodetypes="sssssss" />
    <path
       style="fill:#cea000;fill-opacity:0.82352941"
       d="m 27.168687,8.9566305 c 0,-2.453898 0.720541,-5.072113 0.86698,-4.465332 l 0.227162,0.941265 c 0.146439,0.60678 -0.132768,1.532041 -0.132768,3.985938 0,2.4538955 0.647229,4.2404055 0.442119,4.1601885 l -0.714281,-0.279351 c -0.205108,-0.08022 -0.689212,-1.888813 -0.689212,-4.3427085 z"
       id="rect5048-2-1-7-2"
       inkscape:connector-curvature="0"
       sodipodi:nodetypes="sssssss" />
    <path
       style="fill:#504416;fill-opacity:0.82352941"
       d="m 12.165077,13.309527 4.266448,-0.609492 c 1.22564,-0.175092 2.234808,3.047463 2.234808,3.047463 l 0,0 c 0,0 -3.261442,-0.130688 -4.063284,0.812656 l -1.726897,2.031643 c -0.801842,0.943344 -2.844299,-1.606216 -2.844299,-2.844299 l 0,-0.812657 c 0,-1.238083 0.907585,-1.450222 2.133224,-1.625314 z"
       id="rect3842-4-1"
       inkscape:connector-curvature="0"
       sodipodi:nodetypes="sssssssss" />
    <path
       style="fill:#b37b00;fill-opacity:1"
       d="m 12.012704,12.702583 4.266448,-0.609492 c 1.225639,-0.175092 2.234807,3.047463 2.234807,3.047463 l 0,0 c 0,0 -3.261442,-0.130688 -4.063284,0.812656 l -1.726897,2.031643 C 11.921936,18.928197 9.8794788,16.378637 9.8794788,15.140554 l 0,-0.812657 c 0,-1.238083 0.9075852,-1.450222 2.1332252,-1.625314 z"
       id="rect3842-8-6-6"
       inkscape:connector-curvature="0"
       sodipodi:nodetypes="sssssssss" />
    <path
       style="fill:#ce9716;fill-opacity:1"
       d="m 12.114286,13.413657 4.266449,-0.609492 c 1.225639,-0.175092 0.711073,1.117403 0.711073,1.117403 l -1.930058,0.203164 c 0,0 -0.806003,0.129653 -2.031642,0.304745 l -2.133225,0.304748 c -1.2256392,0.175092 1.238083,-0.101582 0,-0.101582 l -0.406328,0 c -1.2380842,0 0.298092,-1.043894 1.523731,-1.218986 z"
       id="rect3842-8-2-9-3"
       inkscape:connector-curvature="0"
       sodipodi:nodetypes="sssssssss" />
    <path
       style="fill:#504416;fill-opacity:0.82352941"
       d="m 2.3370078,16.663011 -4.266449,-0.609492 c -1.2256401,-0.175092 -2.2348071,3.047464 -2.2348071,3.047464 l 0,0 c 0,0 3.26144205,-0.130688 4.06328505,0.812656 l 1.72689705,2.031643 c 0.801842,0.943344 2.8442967,-1.606216 2.8442967,-2.844299 l 0,-0.812658 c 0,-1.238083 -0.9075837,-1.450222 -2.1332227,-1.625314 z"
       id="rect3842-6-8-8"
       inkscape:connector-curvature="0"
       sodipodi:nodetypes="sssssssss" />
    <path
       style="fill:#b37b00;fill-opacity:1"
       d="m 2.4893818,16.056067 -4.26645,-0.609492 c -1.2256401,-0.175092 -2.2348061,3.047464 -2.2348061,3.047464 l 0,0 c 0,0 3.26144205,-0.130688 4.06328405,0.812656 l 1.72689805,2.031643 c 0.801841,0.943344 2.8442967,-1.606216 2.8442967,-2.844299 l 0,-0.812658 c 0,-1.238083 -0.9075847,-1.450222 -2.1332227,-1.625314 z"
       id="rect3842-8-23-5-3"
       inkscape:connector-curvature="0"
       sodipodi:nodetypes="sssssssss" />
    <path
       style="fill:#ce9716;fill-opacity:1"
       d="m 2.3877998,16.767141 -4.26645,-0.609492 c -1.2256401,-0.175092 -0.711074,1.117403 -0.711074,1.117403 l 1.93005995,0.203164 c 0,0 0.806003,0.129653 2.03164305,0.304745 l 2.133223,0.304748 c 1.2256387,0.175092 -1.238083,-0.101582 -1e-6,-0.101582 l 0.406329,0 c 1.2380827,0 -0.298092,-1.043894 -1.52373,-1.218986 z"
       id="rect3842-8-2-8-6-2"
       inkscape:connector-curvature="0"
       sodipodi:nodetypes="sssssssss" />
    <path
       style="fill:#3f3000;fill-opacity:0.82352941"
       d="m 5.8131311,25.368206 c 0.7619989,-2.91277 2.753912,-5.685644 2.7512983,-4.897777 l -0.01079,3.252197 c -0.00261,0.787866 1.4005695,0.666804 0.6385704,3.579575 -0.7619993,2.912771 -0.8475111,4.345815 -1.6097314,4.146413 L 5.8135301,30.985846 c -0.7622203,-0.199401 -0.7623986,-2.704868 -3.99e-4,-5.61764 z"
       id="rect5048-6-8"
       inkscape:connector-curvature="0"
       sodipodi:nodetypes="sssssss" />
    <path
       style="fill:#b27700;fill-opacity:0.82352941"
       d="m 5.7578278,24.751264 c 0.7619993,-2.912771 2.7539125,-5.685645 2.7512988,-4.897778 l -0.01079,3.252198 c -0.00261,0.787866 1.4005695,0.666804 0.6385704,3.579575 -0.7619991,2.91277 -0.8475109,4.345814 -1.6097312,4.146412 L 5.7582273,30.368903 C 4.996007,30.169501 4.9958287,27.664035 5.7578278,24.751264 z"
       id="rect5048-2-0-6"
       inkscape:connector-curvature="0"
       sodipodi:nodetypes="sssssss" />
    <path
       style="fill:#cea000;fill-opacity:0.82352941"
       d="m 6.1844661,24.71432 c 0.621055,-2.374006 1.9807792,-4.724619 1.9688808,-4.100531 l -0.018458,0.968113 c -0.011898,0.624087 -0.5161884,1.44856 -1.1372432,3.822565 -0.6210547,2.374005 -0.4470439,4.266159 -0.6251741,4.136642 L 5.7521465,29.090076 C 5.574019,28.960557 5.5634116,27.088324 6.1844661,24.71432 z"
       id="rect5048-2-1-7-0"
       inkscape:connector-curvature="0"
       sodipodi:nodetypes="sssssss" />
    <path
       style="fill:#84a621;fill-opacity:0.82352941"
       d="M 5.4105046,16.629154 13.520736,4.7590514 16.734396,3.5889518 5.8814482,17.59228 z"
       id="rect5572"
       inkscape:connector-curvature="0"
       sodipodi:nodetypes="ccccc" />
    <path
       style="fill:#84a621;fill-opacity:0.82352941"
       d="m 19.680278,30.660643 -6.145884,-7.65084 -2.43529,-0.754184 c 1.514107,3.70993 1.365267,8.370114 8.224294,9.025804 z"
       id="rect5572-8"
       inkscape:connector-curvature="0"
       sodipodi:nodetypes="ccccc" />
  </g>
</svg>
