<?xml version="1.0" encoding="UTF-8" standalone="no"?>
<!-- Created with Inkscape (http://www.inkscape.org/) -->

<svg
   xmlns:dc="http://purl.org/dc/elements/1.1/"
   xmlns:cc="http://creativecommons.org/ns#"
   xmlns:rdf="http://www.w3.org/1999/02/22-rdf-syntax-ns#"
   xmlns:svg="http://www.w3.org/2000/svg"
   xmlns="http://www.w3.org/2000/svg"
   xmlns:sodipodi="http://sodipodi.sourceforge.net/DTD/sodipodi-0.dtd"
   xmlns:inkscape="http://www.inkscape.org/namespaces/inkscape"
   width="32px"
   height="32px"
   id="svg3003"
   version="1.1"
   inkscape:version="0.48.4 r9939"
   sodipodi:docname="_base.svg">
  <defs
     id="defs3005" />
  <sodipodi:namedview
     id="base"
     pagecolor="#ffffff"
     bordercolor="#666666"
     borderopacity="1.0"
     inkscape:pageopacity="0.0"
     inkscape:pageshadow="2"
     inkscape:zoom="9.8442522"
     inkscape:cx="15.455985"
     inkscape:cy="21.167277"
     inkscape:current-layer="layer1"
     showgrid="true"
     inkscape:grid-bbox="true"
     inkscape:document-units="px"
     inkscape:window-width="806"
     inkscape:window-height="748"
     inkscape:window-x="947"
     inkscape:window-y="121"
     inkscape:window-maximized="0"
     inkscape:snap-grids="false"
     inkscape:snap-page="false"
     inkscape:snap-to-guides="false" />
  <metadata
     id="metadata3008">
    <rdf:RDF>
      <cc:Work
         rdf:about="">
        <dc:format>image/svg+xml</dc:format>
        <dc:type
           rdf:resource="http://purl.org/dc/dcmitype/StillImage" />
        <dc:title></dc:title>
      </cc:Work>
    </rdf:RDF>
  </metadata>
  <g
     id="layer1"
     inkscape:label="Layer 1"
     inkscape:groupmode="layer">
    <rect
       style="fill:#865a2c;fill-opacity:0.94179891"
       id="rect3789"
       width="32.011185"
       height="32.037804"
       x="-0.15726869"
       y="0.14167023" />
    <rect
       style="fill:#3b8300;fill-opacity:0.82539684"
       id="rect3789-1"
       width="32.112766"
       height="7.0240669"
       x="-0.033131074"
       y="0.017209578" />
    <rect
       style="fill:#64b900;fill-opacity:1"
       id="rect3789-1-7"
       width="32.112766"
       height="2.3512895"
       x="0.095173806"
       y="0.4513019" />
    <path
       style="fill:#504416;fill-opacity:0.82352941000000002"
       d="M 3.7585385,14.019965 8.024988,13.410473 c 1.2256399,-0.175092 2.234807,3.047463 2.234807,3.047463 l 0,0 c 0,0 -3.2614426,-0.130688 -4.0632851,0.812656 L 4.4696133,19.302235 C 3.6677708,20.245579 1.6253141,17.696019 1.6253141,16.457936 l 0,-0.812657 c 0,-1.238083 0.9075849,-1.450222 2.1332244,-1.625314 z"
       id="rect3842"
       inkscape:connector-curvature="0"
       sodipodi:nodetypes="sssssssss" />
    <path
       style="fill:#b37b00;fill-opacity:1"
       d="m 3.6061648,13.413021 4.2664495,-0.609492 c 1.2256399,-0.175092 2.2348067,3.047463 2.2348067,3.047463 l 0,0 c 0,0 -3.2614423,-0.130688 -4.0632848,0.812656 L 4.3172396,18.695291 C 3.5153971,19.638635 1.4729404,17.089075 1.4729404,15.850992 l 0,-0.812657 c 0,-1.238083 0.9075849,-1.450222 2.1332244,-1.625314 z"
       id="rect3842-8"
       inkscape:connector-curvature="0"
       sodipodi:nodetypes="sssssssss" />
    <path
       style="fill:#ce9716;fill-opacity:1"
       d="m 3.707747,14.124095 4.26645,-0.609492 c 1.2256399,-0.175092 0.711074,1.117403 0.711074,1.117403 l -1.93006,0.203164 c 0,0 -0.806003,0.129653 -2.031642,0.304745 l -2.133225,0.304748 c -1.225639,0.175092 1.2380835,-0.101582 2e-7,-0.101582 l -0.4063282,0 c -1.23808325,0 0.298092,-1.043894 1.523731,-1.218986 z"
       id="rect3842-8-2"
       inkscape:connector-curvature="0"
       sodipodi:nodetypes="sssssssss" />
    <path
       style="fill:#504416;fill-opacity:0.82352941"
       d="M 7.7970157,24.077869 5.9967216,23.468377 C 5.4795439,23.293285 5.0537099,26.51584 5.0537099,26.51584 l 0,0 c 0,0 1.3762162,-0.130688 1.7145663,0.812656 l 0.7286904,2.031643 c 0.33835,0.943344 1.2001959,-1.606216 1.2001959,-2.844299 l 0,-0.812657 c 0,-1.238083 -0.3829691,-1.450222 -0.9001468,-1.625314 z"
       id="rect3842-7"
       inkscape:connector-curvature="0"
       sodipodi:nodetypes="sssssssss" />
    <path
       style="fill:#935900;fill-opacity:1"
       d="M 7.8613123,23.470925 6.0610178,22.861433 C 5.5438401,22.686341 5.1180065,25.908896 5.1180065,25.908896 l 0,0 c 0,0 1.3762162,-0.130688 1.7145658,0.812656 l 0.7286909,2.031643 C 7.8996128,29.696539 8.761459,27.146979 8.761459,25.908896 l 0,-0.812657 c 0,-1.238083 -0.3829695,-1.450222 -0.9001467,-1.625314 z"
       id="rect3842-8-7"
       inkscape:connector-curvature="0"
       sodipodi:nodetypes="sssssssss" />
    <path
       style="fill:#9f7920;fill-opacity:1"
       d="M 7.8184477,24.182 6.0181533,23.572508 C 5.5009755,23.397416 5.7181046,24.689911 5.7181046,24.689911 l 0.8144186,0.203164 c 0,0 0.3401054,0.129653 0.8572828,0.304745 l 0.9001472,0.304748 c 0.5171777,0.175092 -0.5224287,-0.101582 -4e-7,-0.101582 l 0.1714572,0 c 0.5224282,0 -0.1257845,-1.043894 -0.6429623,-1.218986 z"
       id="rect3842-8-2-1"
       inkscape:connector-curvature="0"
       sodipodi:nodetypes="sssssssss" />
    <path
       style="fill:#504416;fill-opacity:0.82352941"
       d="m 8.3950566,19.181799 1.307064,-0.295797 c 0.3754854,-0.08498 0.6846524,1.47899 0.6846524,1.47899 l 0,0 c 0,0 -0.9991714,-0.06343 -1.2448224,0.394397 l -0.52905,0.985994 c -0.245651,0.457822 -0.871375,-0.779526 -0.871375,-1.380391 l 0,-0.394398 c 0,-0.600864 0.278046,-0.703819 0.653531,-0.788795 z"
       id="rect3842-2"
       inkscape:connector-curvature="0"
       sodipodi:nodetypes="sssssssss" />
    <path
       style="fill:#b37b00;fill-opacity:1"
       d="m 8.3483756,18.887238 1.307064,-0.295797 c 0.3754854,-0.08498 0.6846524,1.478989 0.6846524,1.478989 l 0,0 c 0,0 -0.9991714,-0.06343 -1.2448224,0.394398 l -0.52905,0.985994 c -0.245651,0.457822 -0.871375,-0.779527 -0.871375,-1.380392 l 0,-0.394397 c 0,-0.600864 0.278046,-0.703819 0.653531,-0.788795 z"
       id="rect3842-8-6"
       inkscape:connector-curvature="0"
       sodipodi:nodetypes="sssssssss" />
    <path
       style="fill:#ce9716;fill-opacity:1"
       d="m 8.3794966,19.232336 1.307063,-0.295798 c 0.3754864,-0.08498 0.217844,0.542297 0.217844,0.542297 l -0.59129,0.0986 c 0,0 -0.246926,0.06292 -0.622411,0.147899 l -0.653532,0.1479 c -0.375485,0.08498 0.379298,-0.0493 0,-0.0493 l -0.124482,0 c -0.379297,0 0.09132,-0.506621 0.466808,-0.591597 z"
       id="rect3842-8-2-0"
       inkscape:connector-curvature="0"
       sodipodi:nodetypes="sssssssss" />
    <path
       style="fill:#504416;fill-opacity:0.82352941"
       d="m 13.468292,23.754068 1.533127,0.0091 c 0.66042,0.0039 1.886609,1.985972 1.886609,1.985972 l -0.609493,-0.304746 c 0,0 -1.156431,-0.305834 -1.731006,0.360289 l -0.908367,1.053098 c -0.574575,0.666122 -1.292971,-0.09546 -1.292971,-1.108641 l 0,-0.665036 c 0,-1.013182 0.461681,-1.334006 1.122101,-1.330071 z"
       id="rect3842-4"
       inkscape:connector-curvature="0"
       sodipodi:nodetypes="sssssssss" />
    <path
       style="fill:#b37b00;fill-opacity:1"
       d="m 13.388142,23.257377 2.244202,-0.498776 c 0.644701,-0.143286 1.175534,2.493883 1.175534,2.493883 l 0,0 c 0,0 -1.320094,0.339502 -2.137335,0.665035 l -0.603622,0.240441 c -0.817241,0.325533 -1.80088,0.107707 -1.80088,-0.905476 l 0,-0.665036 c 0,-1.013182 0.4774,-1.186785 1.122101,-1.330071 z"
       id="rect3842-8-9"
       inkscape:connector-curvature="0"
       sodipodi:nodetypes="sssssssss" />
    <path
       style="fill:#ce9716;fill-opacity:1"
       d="m 13.441575,23.839282 2.244202,-0.498775 c 0.644701,-0.143287 0.374033,0.914423 0.374033,0.914423 l -1.015234,0.166259 c 0,0 -0.457913,1.211755 -1.068667,0.960462 l -1.122101,-0.461685 c -0.610754,-0.251293 0.651246,-0.08313 0,-0.08313 l -0.213733,0 c -0.651246,0 0.1568,-0.854268 0.8015,-0.997554 z"
       id="rect3842-8-2-4"
       inkscape:connector-curvature="0"
       sodipodi:nodetypes="sssssssss" />
    <path
       style="fill:#504416;fill-opacity:0.82352941"
       d="m 18.107013,20.113618 4.266449,0.609492 c 1.22564,0.175092 2.234807,-3.047463 2.234807,-3.047463 l 0,0 c 0,0 -3.261442,0.130688 -4.063285,-0.812656 l -1.726897,-2.031643 c -0.801842,-0.943344 -2.844299,1.606216 -2.844299,2.844299 l 0,0.812657 c 0,1.238083 0.907585,1.450222 2.133225,1.625314 z"
       id="rect3842-6"
       inkscape:connector-curvature="0"
       sodipodi:nodetypes="sssssssss" />
    <path
       style="fill:#b37b00;fill-opacity:1"
       d="m 17.853057,19.399995 3.961703,-1e-6 c 1.238083,0 2.539553,-2.43797 2.539553,-2.43797 l 0,0 c 0,0 -3.261442,0.130688 -4.063285,-0.812656 l -1.726896,-2.031643 c -0.801843,-0.943344 -2.844299,1.606216 -2.844299,2.844299 l 0,0.812657 c 0,1.238083 0.895141,1.625314 2.133224,1.625314 z"
       id="rect3842-8-0"
       inkscape:connector-curvature="0"
       sodipodi:nodetypes="sssssssss" />
    <path
       style="fill:#ce9716;fill-opacity:1"
       d="m 17.649892,18.485756 3.555375,0.406328 c 1.230077,0.14058 1.422149,-0.914239 1.422149,-0.914239 l -1.93006,-0.203164 c 0,0 -0.806003,-0.129653 -2.031642,-0.304745 l -2.133225,-0.304748 c -1.225639,-0.175092 0.553687,-1.005794 0,0.101582 l -0.304746,0.609493 c -0.553687,1.107375 0.192074,0.468913 1.422149,0.609493 z"
       id="rect3842-8-2-3"
       inkscape:connector-curvature="0"
       sodipodi:nodetypes="sssssssss" />
    <path
       style="fill:#504416;fill-opacity:0.82352941"
       d="m 20.322877,30.657736 2.794003,0.886977 c 0.802645,0.254806 1.687822,-2.414208 1.687822,-2.414208 l 0,0 c 0,0 -2.175594,-0.167893 -2.645487,-1.043279 l -1.011992,-1.885284 c -0.469894,-0.875387 -1.996748,1.129567 -2.07923,2.188226 l -0.05414,0.694887 c -0.08248,1.058661 0.506379,1.317875 1.309024,1.572681 z"
       id="rect3842-6-4"
       inkscape:connector-curvature="0"
       sodipodi:nodetypes="sssssssss" />
    <path
       style="fill:#b37b00;fill-opacity:1"
       d="m 20.201692,30.025756 2.632137,0.339684 c 0.822577,0.106155 1.849688,-1.866914 1.849688,-1.866914 l 0,0 c 0,0 -2.175593,-0.167894 -2.645487,-1.043279 l -1.011991,-1.885285 c -0.469894,-0.875386 -1.996747,1.129568 -2.07923,2.188227 l -0.05414,0.694887 c -0.08248,1.058661 0.486448,1.466524 1.309024,1.57268 z"
       id="rect3842-8-0-5"
       inkscape:connector-curvature="0"
       sodipodi:nodetypes="sssssssss" />
    <path
       style="fill:#ce9716;fill-opacity:1"
       d="m 20.127618,29.226589 2.335105,0.652288 c 0.807891,0.225676 1.005776,-0.65981 1.005776,-0.65981 l -1.268787,-0.339208 c 0,0 -0.526867,-0.179973 -1.329511,-0.434779 l -1.397002,-0.44349 c -0.802644,-0.254806 0.434874,-0.81256 -0.0068,0.08686 l -0.243077,0.495036 c -0.441642,0.89942 0.09637,0.417427 0.904264,0.643103 z"
       id="rect3842-8-2-3-8"
       inkscape:connector-curvature="0"
       sodipodi:nodetypes="sssssssss" />
    <path
       style="fill:#3b8300;fill-opacity:0.82352941"
       d="M 3.030291,10.132915 3.7410567,4.8096116 5.1978601,9.5557388 4.3805178,14.494257 z"
       id="rect3829-8"
       inkscape:connector-curvature="0"
       sodipodi:nodetypes="ccccc" />
    <path
       style="fill:#3b8300;fill-opacity:0.82352941"
       d="M 7.3955762,12.586868 4.13402,8.3201367 8.5201538,10.64604 11.434265,14.716047 z"
       id="rect3829-8-1"
       inkscape:connector-curvature="0"
       sodipodi:nodetypes="ccccc" />
    <path
       style="fill:#3b8300;fill-opacity:0.82352941"
       d="M 5.6966138,10.275486 3.5625837,5.8362239 7.8228404,7.9842166 9.6244814,12.239349 z"
       id="rect3829-8-2"
       inkscape:connector-curvature="0"
       sodipodi:nodetypes="ccccc" />
    <path
       style="fill:#3b8300;fill-opacity:0.82352941"
       d="m 7.4328155,9.9753944 -2.134031,-4.439262 4.260257,2.147993 1.8016405,4.2551316 z"
       id="rect3829-8-2-1"
       inkscape:connector-curvature="0"
       sodipodi:nodetypes="ccccc" />
    <path
       style="fill:#3b8300;fill-opacity:0.82352941"
       d="M 15.123277,7.9054453 18.81711,4.647112 17.905444,9.3303299 14.298661,12.218785 z"
       id="rect3829-8-2-1-4"
       inkscape:connector-curvature="0"
       sodipodi:nodetypes="ccccc" />
    <path
       style="fill:#3b8300;fill-opacity:0.82352941"
       d="M 17.367465,9.1146448 19.502589,4.6759086 20.484797,9.3448414 18.28596,13.408974 z"
       id="rect3829-8-2-1-4-9"
       inkscape:connector-curvature="0"
       sodipodi:nodetypes="ccccc" />
    <path
       style="fill:#3b8300;fill-opacity:0.82352941"
       d="m 20.716292,9.423109 -1.707224,-3.5514101 3.408205,1.7183944 1.441312,3.4041057 z"
       id="rect3829-8-2-1-8"
       inkscape:connector-curvature="0"
       sodipodi:nodetypes="ccccc" />
    <path
       style="fill:#3ba700;fill-opacity:0.82352942"
       d="m 20.81862,8.7731713 -1.092624,-2.2729024 2.181252,1.099772 0.922439,2.178627 z"
       id="rect3829-8-2-1-8-2"
       inkscape:connector-curvature="0"
       sodipodi:nodetypes="ccccc" />
    <path
       style="fill:#3ba700;fill-opacity:0.82352942"
       d="M 19.1875 7.4375 L 18 9.65625 L 18.375 11.875 L 19.59375 9.84375 L 19.1875 7.4375 z "
       id="rect3829-8-2-1-8-2-4" />
    <path
       inkscape:connector-curvature="0"
       style="fill:#3ba700;fill-opacity:0.82352942"
       d="M 16.975089,6.9409813 15.248479,8.7717808 15.029952,11.011363 16.73767,9.3697073 16.975088,6.9409812 z"
       id="rect3829-8-2-1-8-2-4-2" />
    <path
       inkscape:connector-curvature="0"
       style="fill:#3ba700;fill-opacity:0.82352942"
       d="m 16.561204,4.1978469 0.553995,2.4548113 1.017198,0.1393938 0.310626,-1.0405533 z"
       id="rect3829-8-2-1-8-2-4-2-9"
       sodipodi:nodetypes="ccccc" />
    <path
       inkscape:connector-curvature="0"
       style="fill:#3ba700;fill-opacity:0.82352942"
       d="M 20.765826,3.6232117 20.211831,6.078023 19.194633,6.2174168 18.884007,5.1768635 z"
       id="rect3829-8-2-1-8-2-4-2-9-9"
       sodipodi:nodetypes="ccccc" />
    <path
       inkscape:connector-curvature="0"
       style="fill:#3ba700;fill-opacity:0.82352941"
       d="M 5.8029048,7.1779586 6.0562261,9.6817235 7.6059348,11.313252 7.4832085,8.9476074 5.8029041,7.1779593 z"
       id="rect3829-8-2-1-8-2-4-2-8" />
    <path
       inkscape:connector-curvature="0"
       style="fill:#3ba700;fill-opacity:0.82352941"
       d="M 4.0715834,7.3448568 3.3490962,9.7554636 4.1578966,11.855302 4.9483011,9.6222325 4.0715826,7.3448572 z"
       id="rect3829-8-2-1-8-2-4-2-8-3" />
    <path
       inkscape:connector-curvature="0"
       style="fill:#3ba700;fill-opacity:0.82352941"
       d="M 3.1536314,4.0590814 3.2469105,6.0701576 4.4137599,7.4409564 4.4187844,5.545902 3.1536309,4.0590819 z"
       id="rect3829-8-2-1-8-2-4-2-8-3-8" />
    <path
       inkscape:connector-curvature="0"
       style="fill:#3ba700;fill-opacity:0.82352941"
       d="M 8.3757907,3.9625454 7.2536416,5.6340447 5.5452561,6.2015354 6.5232009,4.5783039 8.3757909,3.9625461 z"
       id="rect3829-8-2-1-8-2-4-2-8-3-8-6" />
  </g>
</svg>
