<?xml version="1.0" encoding="UTF-8" standalone="no"?>
<!-- Created with Inkscape (http://www.inkscape.org/) -->

<svg
   xmlns:dc="http://purl.org/dc/elements/1.1/"
   xmlns:cc="http://creativecommons.org/ns#"
   xmlns:rdf="http://www.w3.org/1999/02/22-rdf-syntax-ns#"
   xmlns:svg="http://www.w3.org/2000/svg"
   xmlns="http://www.w3.org/2000/svg"
   xmlns:sodipodi="http://sodipodi.sourceforge.net/DTD/sodipodi-0.dtd"
   xmlns:inkscape="http://www.inkscape.org/namespaces/inkscape"
   width="32px"
   height="32px"
   id="svg3003"
   version="1.1"
   inkscape:version="0.48.4 r9939"
   sodipodi:docname="mountain_top_3.svg"
   inkscape:export-filename="C:\Users\Administrador\Desktop\mountain_top_2.png"
   inkscape:export-xdpi="90"
   inkscape:export-ydpi="90">
  <defs
     id="defs3005" />
  <sodipodi:namedview
     id="base"
     pagecolor="#ffffff"
     bordercolor="#666666"
     borderopacity="1.0"
     inkscape:pageopacity="0.0"
     inkscape:pageshadow="2"
     inkscape:zoom="9.8442522"
     inkscape:cx="24.267467"
     inkscape:cy="6.9394143"
     inkscape:current-layer="layer1"
     showgrid="true"
     inkscape:grid-bbox="true"
     inkscape:document-units="px"
     inkscape:window-width="974"
     inkscape:window-height="834"
     inkscape:window-x="947"
     inkscape:window-y="121"
     inkscape:window-maximized="0"
     inkscape:snap-grids="false"
     inkscape:snap-page="false"
     inkscape:snap-to-guides="false" />
  <metadata
     id="metadata3008">
    <rdf:RDF>
      <cc:Work
         rdf:about="">
        <dc:format>image/svg+xml</dc:format>
        <dc:type
           rdf:resource="http://purl.org/dc/dcmitype/StillImage" />
        <dc:title></dc:title>
      </cc:Work>
    </rdf:RDF>
  </metadata>
  <g
     id="layer1"
     inkscape:label="Layer 1"
     inkscape:groupmode="layer">
    <rect
       style="fill:#865a2c;fill-opacity:0.94179891"
       id="rect3789"
       width="32.011185"
       height="32.037804"
       x="-0.15726869"
       y="0.14167023" />
    <rect
       style="fill:#3b8300;fill-opacity:0.82539684"
       id="rect3789-1"
       width="32.112766"
       height="7.0240669"
       x="-0.033131074"
       y="0.017209578" />
    <path
       style="fill:#64b900;fill-opacity:1"
       d="M 0.09517381,0.4513019 C 10.147405,1.728692 20.429357,0.63530762 32.20794,0.4513019 L 14.024741,3.0057556 C -0.93764231,3.8470495 -0.69316934,1.5253253 1.110995,2.8025914 z"
       id="rect3789-1-7"
       inkscape:connector-curvature="0"
       sodipodi:nodetypes="ccccc" />
    <path
       style="fill:#504416;fill-opacity:0.82352941"
       d="m 18.945066,8.7376948 -4.26645,-0.609492 c -1.22564,-0.175092 -2.234807,3.0474632 -2.234807,3.0474632 l 0,0 c 0,0 3.261443,-0.130688 4.063285,0.812656 l 1.726897,2.031643 c 0.801842,0.943344 2.844299,-1.606216 2.844299,-2.844299 l 0,-0.812657 c 0,-1.2380832 -0.907585,-1.4502222 -2.133224,-1.6253142 z"
       id="rect3842"
       inkscape:connector-curvature="0"
       sodipodi:nodetypes="sssssssss" />
    <path
       style="fill:#b37b00;fill-opacity:1"
       d="M 19.097439,8.1307508 14.83099,7.5212588 c -1.22564,-0.175092 -2.234807,3.0474632 -2.234807,3.0474632 l 0,0 c 0,0 3.261443,-0.130688 4.063285,0.812656 l 1.726897,2.031643 c 0.801842,0.943344 2.844299,-1.606216 2.844299,-2.844299 l 0,-0.8126572 c 0,-1.238083 -0.907585,-1.450222 -2.133225,-1.625314 z"
       id="rect3842-8"
       inkscape:connector-curvature="0"
       sodipodi:nodetypes="sssssssss" />
    <path
       style="fill:#ce9716;fill-opacity:1"
       d="m 18.995857,8.8418248 -4.26645,-0.609492 c -1.22564,-0.175092 -0.711074,1.117403 -0.711074,1.117403 l 1.93006,0.203164 c 0,0 0.806003,0.129653 2.031642,0.304745 l 2.133225,0.3047482 c 1.225639,0.175092 -1.238083,-0.101582 0,-0.101582 l 0.406328,0 c 1.238084,0 -0.298092,-1.0438942 -1.523731,-1.2189862 z"
       id="rect3842-8-2"
       inkscape:connector-curvature="0"
       sodipodi:nodetypes="sssssssss" />
    <path
       style="fill:#504416;fill-opacity:0.82352941"
       d="m 4.4950083,15.03706 4.2664495,-0.609492 c 1.22564,-0.175092 2.2348072,3.047463 2.2348072,3.047463 l 0,0 c 0,0 -3.2614422,-0.130688 -4.0632852,0.812656 L 5.2060833,20.31933 c -0.801843,0.943344 -2.844299,-1.606216 -2.844299,-2.844299 l 0,-0.812657 c 0,-1.238083 0.907584,-1.450222 2.133224,-1.625314 z"
       id="rect3842-6"
       inkscape:connector-curvature="0"
       sodipodi:nodetypes="sssssssss" />
    <path
       style="fill:#b37b00;fill-opacity:1"
       d="m 4.3426343,14.430116 4.2664505,-0.609492 c 1.22564,-0.175092 2.2348062,3.047463 2.2348062,3.047463 l 0,0 c 0,0 -3.2614422,-0.130688 -4.0632842,0.812656 L 5.0537093,19.712386 C 4.2518673,20.65573 2.2094103,18.10617 2.2094103,16.868087 l 0,-0.812657 c 0,-1.238083 0.907585,-1.450222 2.133224,-1.625314 z"
       id="rect3842-8-23"
       inkscape:connector-curvature="0"
       sodipodi:nodetypes="sssssssss" />
    <path
       style="fill:#ce9716;fill-opacity:1"
       d="m 4.4442163,15.14119 4.2664505,-0.609492 c 1.22564,-0.175092 0.711074,1.117403 0.711074,1.117403 l -1.93006,0.203164 c 0,0 -0.806003,0.129653 -2.0316425,0.304745 l -2.133225,0.304748 c -1.225639,0.175092 1.238084,-0.101582 1e-6,-0.101582 l -0.406329,0 c -1.238083,0 0.298092,-1.043894 1.523731,-1.218986 z"
       id="rect3842-8-2-8"
       inkscape:connector-curvature="0"
       sodipodi:nodetypes="sssssssss" />
    <path
       style="fill:#3f3000;fill-opacity:0.82352941"
       d="m 16.405512,20.013309 c 3.010792,0 6.197521,1.225278 5.434643,1.42215 l -3.149046,0.812657 c -0.762877,0.196871 -0.290626,1.523732 -3.301418,1.523732 -3.010792,0 -4.418822,0.27996 -4.418822,-0.507911 l 0,-1.828478 c 0,-0.787871 2.423851,-1.42215 5.434643,-1.42215 z"
       id="rect5048"
       inkscape:connector-curvature="0"
       sodipodi:nodetypes="sssssss" />
    <path
       style="fill:#b27700;fill-opacity:0.82352941"
       d="m 16.195867,19.430448 c 3.010793,0 6.197522,1.225278 5.434644,1.42215 l -3.149047,0.812657 c -0.762877,0.196871 -0.290626,1.523732 -3.301418,1.523732 -3.010792,0 -4.418822,0.27996 -4.418822,-0.507911 l 0,-1.828478 c 0,-0.787871 2.423851,-1.42215 5.434643,-1.42215 z"
       id="rect5048-2"
       inkscape:connector-curvature="0"
       sodipodi:nodetypes="sssssss" />
    <path
       style="fill:#cea000;fill-opacity:0.82352941"
       d="m 15.91659,19.84985 c 2.453897,0 5.072112,0.720541 4.465331,0.86698 l -0.941265,0.227162 c -0.60678,0.146439 -1.532041,-0.132768 -3.985937,-0.132768 -2.453896,0 -4.240406,0.647229 -4.160189,0.442119 l 0.279351,-0.714281 c 0.08022,-0.205108 1.888813,-0.689212 4.342709,-0.689212 z"
       id="rect5048-2-1"
       inkscape:connector-curvature="0"
       sodipodi:nodetypes="sssssss" />
    <path
       style="fill:#6b9b00;fill-opacity:0.82352941"
       d="m 24.074962,25.397163 4.469613,0.914239 -2.133224,2.742717 -3.961703,0.203164 z"
       id="rect5087"
       inkscape:connector-curvature="0"
       sodipodi:nodetypes="ccccc" />
    <path
       style="fill:#6b9b00;fill-opacity:0.82352941"
       d="m 22.652813,23.670267 4.469612,0.914239 -2.133224,2.742717 -3.961702,0.203164 z"
       id="rect5087-3"
       inkscape:connector-curvature="0"
       sodipodi:nodetypes="ccccc" />
    <path
       style="fill:#6b9b00;fill-opacity:0.82352941"
       d="m 27.400299,23.721125 1.386535,4.346355 -3.43538,-0.520878 -2.113229,-3.357174 z"
       id="rect5087-1"
       inkscape:connector-curvature="0"
       sodipodi:nodetypes="ccccc" />
    <path
       style="fill:#6b9b00;fill-opacity:0.82352941"
       d="M 3.7241588,24.747716 5.1106935,29.094071 1.6753141,28.573193 -0.43791585,25.216019 z"
       id="rect5087-1-2"
       inkscape:connector-curvature="0"
       sodipodi:nodetypes="ccccc" />
    <path
       style="fill:#6b9b00;fill-opacity:0.82352941"
       d="m 27.799121,26.474612 1.386534,4.346355 -3.435379,-0.520878 -2.11323,-3.357174 z"
       id="rect5087-1-2-2"
       inkscape:connector-curvature="0"
       sodipodi:nodetypes="ccccc" />
    <path
       style="fill:#6b9b00;fill-opacity:0.82352941"
       d="M 5.9589653,25.560373 7.3455,29.906728 3.9101207,29.38585 1.7968907,26.028676 z"
       id="rect5087-1-2-9"
       inkscape:connector-curvature="0"
       sodipodi:nodetypes="ccccc" />
    <path
       style="fill:#6b9b00;fill-opacity:0.82352941"
       d="M 5.3494723,22.716074 6.7360073,27.062429 3.300628,26.541551 1.187398,23.184377 z"
       id="rect5087-1-2-9-8"
       inkscape:connector-curvature="0"
       sodipodi:nodetypes="ccccc" />
    <path
       style="fill:#6b9b00;fill-opacity:0.82352941"
       d="m 3.1146657,23.122403 1.3865352,4.346355 -3.4353795,-0.520878 -2.11323,-3.357174 z"
       id="rect5087-1-2-9-8-2"
       inkscape:connector-curvature="0"
       sodipodi:nodetypes="ccccc" />
    <path
       style="fill:#6b9b00;fill-opacity:0.82352941"
       d="m 7.2795326,24.138224 1.386535,4.346355 -3.4353793,-0.520878 -2.11323,-3.357174 z"
       id="rect5087-1-2-9-8-27"
       inkscape:connector-curvature="0"
       sodipodi:nodetypes="ccccc" />
    <path
       style="fill:#6b9b00;fill-opacity:0.82352941"
       d="M 6.1621295,22.51291 7.5486645,26.859265 4.113285,26.338387 2.000055,22.981213 z"
       id="rect5087-1-2-9-8-8"
       inkscape:connector-curvature="0"
       sodipodi:nodetypes="ccccc" />
    <path
       style="fill:#6b9b00;fill-opacity:0.82352941"
       d="M 7.8890253,24.646134 9.2755603,28.992489 5.840181,28.471611 3.726951,25.114437 z"
       id="rect5087-1-2-9-8-5"
       inkscape:connector-curvature="0"
       sodipodi:nodetypes="ccccc" />
    <path
       style="fill:#6be900;fill-opacity:0.82352941"
       d="M 4.3684545,24.930239 5.0294456,28.519612 2.3558224,27.758988 1.0181444,24.881161 z"
       id="rect5087-1-2-9-8-5-8"
       inkscape:connector-curvature="0"
       sodipodi:nodetypes="ccccc" />
    <path
       style="fill:#6be900;fill-opacity:0.82352941"
       d="m 3.4716311,26.910681 1.710264,-3.224206 1.6237179,2.256181 -0.7380272,3.086517 z"
       id="rect5087-1-2-9-8-5-8-3"
       inkscape:connector-curvature="0"
       sodipodi:nodetypes="ccccc" />
    <path
       style="fill:#6be900;fill-opacity:0.82352941"
       d="m 26.707652,27.936867 -3.481291,1.095955 0.427184,-2.746693 2.692169,-1.680326 z"
       id="rect5087-1-2-9-8-5-8-9"
       inkscape:connector-curvature="0"
       sodipodi:nodetypes="ccccc" />
    <path
       style="fill:#6be900;fill-opacity:0.82352941"
       d="m 28.853454,26.390794 -1.191936,3.449608 -1.952602,-1.978422 0.252617,-3.163456 z"
       id="rect5087-1-2-9-8-5-8-9-4"
       inkscape:connector-curvature="0"
       sodipodi:nodetypes="ccccc" />
  </g>
</svg>
